#VRML V2.0 utf8

Shape {
  appearance Appearance {
    material Material {
      diffuseColor 1.0000 0.5020 0.5020
      specularColor 0.5020 0.2510 0.2510
      ambientIntensity 0.2
      transparency 0.0000
      shininess 0.5
    }
  }
  geometry IndexedFaceSet {
    ccw TRUE
    solid FALSE
    coord DEF co Coordinate {
      point [
        2.952756 1.397638 2.362205,
        2.952756 -1.397638 2.362205,
        2.952756 1.397638 0.078740,
        2.952756 -1.397638 0.078740,
        -2.874016 1.476378 0.078740,
        -2.874016 1.476378 2.362205,
        2.874016 1.476378 0.078740,
        2.874016 1.476378 2.362205,
        -2.952756 1.397638 0.078740,
        -2.952756 -1.397638 0.078740,
        -2.952756 1.397638 2.362205,
        -2.952756 -1.397638 2.362205,
        -2.874016 -1.476378 2.362205,
        -2.874016 -1.476378 0.078740,
        2.874016 -1.476378 2.362205,
        2.874016 -1.476378 0.078740,
        -2.874016 1.397638 2.440945,
        -2.874016 -1.397638 2.440945,
        2.874016 1.397638 2.440945,
        2.874016 -1.397638 2.440945,
        2.874016 1.397638 0.000000,
        2.874016 -1.397638 0.000000,
        -2.874016 1.397638 0.000000,
        -2.874016 -1.397638 0.000000,
        -2.874016 -1.418017 2.438262,
        2.874016 -1.418017 2.438262,
        -2.874016 -1.437008 2.430396,
        2.874016 -1.437008 2.430396,
        -2.874016 -1.453315 2.417882,
        2.874016 -1.453315 2.417882,
        -2.874016 -1.465829 2.401575,
        2.874016 -1.465829 2.401575,
        -2.874016 -1.473695 2.382584,
        2.874016 -1.473695 2.382584,
        2.944450 -1.397638 2.396158,
        2.942207 -1.397638 2.401575,
        2.939883 -1.415287 2.401575,
        2.935054 -1.397638 2.410897,
        2.929694 -1.397638 2.417882,
        2.927796 -1.412048 2.417882,
        2.912044 -1.407828 2.430396,
        2.893701 -1.402913 2.438262,
        2.891665 -1.407828 2.438262,
        2.879290 -1.417323 2.438262,
        2.891494 -1.397638 2.438644,
        2.922707 -1.397638 2.423243,
        2.913386 -1.397638 2.430396,
        2.907969 -1.397638 2.432639,
        2.894395 -1.397638 2.438262,
        2.901855 -1.425477 2.430396,
        2.884206 -1.415287 2.438262,
        2.893701 -1.431733 2.430396,
        2.884206 -1.435667 2.430396,
        2.908111 -1.417323 2.430396,
        2.888426 -1.412048 2.438262,
        2.922234 -1.425477 2.417882,
        2.913386 -1.437008 2.417882,
        2.901855 -1.445856 2.417882,
        2.888426 -1.451418 2.417882,
        2.933071 -1.431733 2.401575,
        2.922234 -1.445856 2.401575,
        2.908111 -1.456693 2.401575,
        2.891665 -1.463505 2.401575,
        2.950455 -1.397638 2.379683,
        2.950073 -1.397638 2.382584,
        2.947481 -1.417323 2.382584,
        2.939883 -1.435667 2.382584,
        2.927796 -1.451418 2.382584,
        2.912044 -1.463505 2.382584,
        2.893701 -1.471104 2.382584,
        2.950073 -1.418017 2.362205,
        2.942207 -1.437008 2.362205,
        2.929694 -1.453315 2.362205,
        2.913386 -1.465829 2.362205,
        2.894395 -1.473695 2.362205,
        -2.893701 -1.471104 2.382584,
        -2.893701 -1.431733 2.430396,
        -2.884206 -1.415287 2.438262,
        -2.888426 -1.412048 2.438262,
        -2.894395 -1.397638 2.438262,
        -2.893701 -1.402913 2.438262,
        -2.879290 -1.417323 2.438262,
        -2.884206 -1.435667 2.430396,
        -2.888426 -1.451418 2.417882,
        -2.901855 -1.425477 2.430396,
        -2.891665 -1.407828 2.438262,
        -2.908111 -1.417323 2.430396,
        -2.912044 -1.407828 2.430396,
        -2.913386 -1.397638 2.430396,
        -2.901855 -1.445856 2.417882,
        -2.913386 -1.437008 2.417882,
        -2.922234 -1.425477 2.417882,
        -2.927796 -1.412048 2.417882,
        -2.929694 -1.397638 2.417882,
        -2.891665 -1.463505 2.401575,
        -2.908111 -1.456693 2.401575,
        -2.922234 -1.445856 2.401575,
        -2.933071 -1.431733 2.401575,
        -2.939883 -1.415287 2.401575,
        -2.942207 -1.397638 2.401575,
        -2.912044 -1.463505 2.382584,
        -2.927796 -1.451418 2.382584,
        -2.939883 -1.435667 2.382584,
        -2.947481 -1.417323 2.382584,
        -2.950073 -1.397638 2.382584,
        -2.894395 -1.473695 2.362205,
        -2.913386 -1.465829 2.362205,
        -2.929694 -1.453315 2.362205,
        -2.942207 -1.437008 2.362205,
        -2.950073 -1.418017 2.362205,
        2.894395 -1.473695 0.078740,
        2.913386 -1.465829 0.078740,
        2.929694 -1.453315 0.078740,
        2.942207 -1.437008 0.078740,
        2.950073 -1.418017 0.078740,
        2.891494 1.397638 2.438644,
        2.894395 1.397638 2.438262,
        2.907969 1.397638 2.432639,
        2.913386 1.397638 2.430396,
        2.922707 1.397638 2.423243,
        2.929694 1.397638 2.417882,
        2.935054 1.397638 2.410897,
        2.942207 1.397638 2.401575,
        2.944450 1.397638 2.396158,
        2.950073 1.397638 2.382584,
        2.950455 1.397638 2.379683,
        2.874016 1.418017 2.438262,
        -2.874016 1.418017 2.438262,
        2.874016 1.437008 2.430396,
        -2.874016 1.437008 2.430396,
        2.874016 1.453315 2.417882,
        -2.874016 1.453315 2.417882,
        2.874016 1.465829 2.401575,
        -2.874016 1.465829 2.401575,
        2.874016 1.473695 2.382584,
        -2.874016 1.473695 2.382584,
        -2.894395 1.397638 2.438262,
        -2.913386 1.397638 2.430396,
        -2.929694 1.397638 2.417882,
        -2.942207 1.397638 2.401575,
        -2.950073 1.397638 2.382584,
        -2.950073 -1.418017 0.078740,
        -2.942207 -1.437008 0.078740,
        -2.929694 -1.453315 0.078740,
        -2.913386 -1.465829 0.078740,
        -2.894395 -1.473695 0.078740,
        2.874016 -1.418017 0.002683,
        -2.874016 -1.418017 0.002683,
        2.874016 -1.437008 0.010549,
        -2.874016 -1.437008 0.010549,
        2.874016 -1.453315 0.023063,
        -2.874016 -1.453315 0.023063,
        2.874016 -1.465829 0.039370,
        -2.874016 -1.465829 0.039370,
        2.874016 -1.473695 0.058361,
        -2.874016 -1.473695 0.058361,
        2.947481 -1.417323 0.058361,
        2.939883 -1.435667 0.058361,
        2.939883 -1.415287 0.039370,
        2.933071 -1.431733 0.039370,
        2.927796 -1.412048 0.023063,
        2.922234 -1.425477 0.023063,
        2.912044 -1.407828 0.010549,
        2.908111 -1.417323 0.010549,
        2.893701 -1.402913 0.002683,
        2.891665 -1.407828 0.002683,
        2.927796 -1.451418 0.058361,
        2.922234 -1.445856 0.039370,
        2.913386 -1.437008 0.023063,
        2.901855 -1.425477 0.010549,
        2.888426 -1.412048 0.002683,
        2.950073 -1.397638 0.058361,
        2.942207 -1.397638 0.039370,
        2.929694 -1.397638 0.023063,
        2.913386 -1.397638 0.010549,
        2.894395 -1.397638 0.002683,
        2.912044 -1.463505 0.058361,
        2.893701 -1.471104 0.058361,
        2.908111 -1.456693 0.039370,
        2.891665 -1.463505 0.039370,
        2.901855 -1.445856 0.023063,
        2.888426 -1.451418 0.023063,
        2.893701 -1.431733 0.010549,
        2.884206 -1.435667 0.010549,
        2.884206 -1.415287 0.002683,
        2.879290 -1.417323 0.002683,
        2.893701 1.471104 2.382584,
        2.891665 1.463505 2.401575,
        2.884206 1.435667 2.430396,
        2.879290 1.417323 2.438262,
        2.884206 1.415287 2.438262,
        2.893701 1.402913 2.438262,
        2.891665 1.407828 2.438262,
        2.893701 1.431733 2.430396,
        2.888426 1.412048 2.438262,
        2.901855 1.425477 2.430396,
        2.908111 1.417323 2.430396,
        2.912044 1.407828 2.430396,
        2.888426 1.451418 2.417882,
        2.901855 1.445856 2.417882,
        2.913386 1.437008 2.417882,
        2.922234 1.425477 2.417882,
        2.927796 1.412048 2.417882,
        2.908111 1.456693 2.401575,
        2.922234 1.445856 2.401575,
        2.933071 1.431733 2.401575,
        2.939883 1.415287 2.401575,
        2.912044 1.463505 2.382584,
        2.927796 1.451418 2.382584,
        2.939883 1.435667 2.382584,
        2.947481 1.417323 2.382584,
        2.894395 1.473695 2.362205,
        2.913386 1.465829 2.362205,
        2.929694 1.453315 2.362205,
        2.942207 1.437008 2.362205,
        2.950073 1.418017 2.362205,
        -2.947481 1.417323 2.382584,
        -2.908111 1.417323 2.430396,
        -2.891665 1.407828 2.438262,
        -2.888426 1.412048 2.438262,
        -2.879290 1.417323 2.438262,
        -2.893701 1.402913 2.438262,
        -2.912044 1.407828 2.430396,
        -2.927796 1.412048 2.417882,
        -2.901855 1.425477 2.430396,
        -2.884206 1.415287 2.438262,
        -2.893701 1.431733 2.430396,
        -2.884206 1.435667 2.430396,
        -2.922234 1.425477 2.417882,
        -2.913386 1.437008 2.417882,
        -2.901855 1.445856 2.417882,
        -2.888426 1.451418 2.417882,
        -2.939883 1.415287 2.401575,
        -2.933071 1.431733 2.401575,
        -2.922234 1.445856 2.401575,
        -2.908111 1.456693 2.401575,
        -2.891665 1.463505 2.401575,
        -2.939883 1.435667 2.382584,
        -2.927796 1.451418 2.382584,
        -2.912044 1.463505 2.382584,
        -2.893701 1.471104 2.382584,
        -2.950073 1.418017 2.362205,
        -2.942207 1.437008 2.362205,
        -2.929694 1.453315 2.362205,
        -2.913386 1.465829 2.362205,
        -2.894395 1.473695 2.362205,
        -2.893701 -1.471104 0.058361,
        -2.912044 -1.463505 0.058361,
        -2.891665 -1.463505 0.039370,
        -2.908111 -1.456693 0.039370,
        -2.888426 -1.451418 0.023063,
        -2.901855 -1.445856 0.023063,
        -2.884206 -1.435667 0.010549,
        -2.893701 -1.431733 0.010549,
        -2.879290 -1.417323 0.002683,
        -2.884206 -1.415287 0.002683,
        -2.927796 -1.451418 0.058361,
        -2.922234 -1.445856 0.039370,
        -2.913386 -1.437008 0.023063,
        -2.901855 -1.425477 0.010549,
        -2.888426 -1.412048 0.002683,
        -2.939883 -1.435667 0.058361,
        -2.947481 -1.417323 0.058361,
        -2.933071 -1.431733 0.039370,
        -2.939883 -1.415287 0.039370,
        -2.922234 -1.425477 0.023063,
        -2.927796 -1.412048 0.023063,
        -2.908111 -1.417323 0.010549,
        -2.912044 -1.407828 0.010549,
        -2.891665 -1.407828 0.002683,
        -2.893701 -1.402913 0.002683,
        -2.950073 -1.397638 0.058361,
        -2.942207 -1.397638 0.039370,
        -2.929694 -1.397638 0.023063,
        -2.913386 -1.397638 0.010549,
        -2.894395 -1.397638 0.002683,
        2.894395 1.397638 0.002683,
        2.913386 1.397638 0.010549,
        2.929694 1.397638 0.023063,
        2.942207 1.397638 0.039370,
        2.950073 1.397638 0.058361,
        2.950073 1.418017 0.078740,
        2.942207 1.437008 0.078740,
        2.929694 1.453315 0.078740,
        2.913386 1.465829 0.078740,
        2.894395 1.473695 0.078740,
        -2.894395 1.473695 0.078740,
        -2.913386 1.465829 0.078740,
        -2.929694 1.453315 0.078740,
        -2.942207 1.437008 0.078740,
        -2.950073 1.418017 0.078740,
        -2.894395 1.397638 0.002683,
        -2.913386 1.397638 0.010549,
        -2.929694 1.397638 0.023063,
        -2.942207 1.397638 0.039370,
        -2.950073 1.397638 0.058361,
        2.893701 1.471104 0.058361,
        2.912044 1.463505 0.058361,
        2.891665 1.463505 0.039370,
        2.908111 1.456693 0.039370,
        2.888426 1.451418 0.023063,
        2.901855 1.445856 0.023063,
        2.884206 1.435667 0.010549,
        2.893701 1.431733 0.010549,
        2.879290 1.417323 0.002683,
        2.884206 1.415287 0.002683,
        2.927796 1.451418 0.058361,
        2.922234 1.445856 0.039370,
        2.913386 1.437008 0.023063,
        2.901855 1.425477 0.010549,
        2.888426 1.412048 0.002683,
        2.874016 1.473695 0.058361,
        2.874016 1.465829 0.039370,
        2.874016 1.453315 0.023063,
        2.874016 1.437008 0.010549,
        2.874016 1.418017 0.002683,
        2.939883 1.435667 0.058361,
        2.947481 1.417323 0.058361,
        2.933071 1.431733 0.039370,
        2.939883 1.415287 0.039370,
        2.922234 1.425477 0.023063,
        2.927796 1.412048 0.023063,
        2.908111 1.417323 0.010549,
        2.912044 1.407828 0.010549,
        2.891665 1.407828 0.002683,
        2.893701 1.402913 0.002683,
        -2.947481 1.417323 0.058361,
        -2.939883 1.435667 0.058361,
        -2.939883 1.415287 0.039370,
        -2.933071 1.431733 0.039370,
        -2.927796 1.412048 0.023063,
        -2.922234 1.425477 0.023063,
        -2.912044 1.407828 0.010549,
        -2.908111 1.417323 0.010549,
        -2.893701 1.402913 0.002683,
        -2.891665 1.407828 0.002683,
        -2.927796 1.451418 0.058361,
        -2.922234 1.445856 0.039370,
        -2.913386 1.437008 0.023063,
        -2.901855 1.425477 0.010549,
        -2.888426 1.412048 0.002683,
        -2.912044 1.463505 0.058361,
        -2.893701 1.471104 0.058361,
        -2.908111 1.456693 0.039370,
        -2.891665 1.463505 0.039370,
        -2.901855 1.445856 0.023063,
        -2.888426 1.451418 0.023063,
        -2.893701 1.431733 0.010549,
        -2.884206 1.435667 0.010549,
        -2.884206 1.415287 0.002683,
        -2.879290 1.417323 0.002683,
        -2.874016 1.473695 0.058361,
        -2.874016 1.465829 0.039370,
        -2.874016 1.453315 0.023063,
        -2.874016 1.437008 0.010549,
        -2.874016 1.418017 0.002683,
      ]
    }
    coordIndex [
      0, 1, 2, -1,
      2, 1, 3, -1,
      4, 5, 6, -1,
      6, 5, 7, -1,
      8, 9, 10, -1,
      10, 9, 11, -1,
      12, 13, 14, -1,
      14, 13, 15, -1,
      16, 17, 18, -1,
      18, 17, 19, -1,
      20, 21, 22, -1,
      22, 21, 23, -1,
      19, 17, 24, -1,
      19, 24, 25, -1,
      25, 24, 26, -1,
      25, 26, 27, -1,
      27, 26, 28, -1,
      27, 28, 29, -1,
      29, 28, 30, -1,
      29, 30, 31, -1,
      31, 30, 32, -1,
      31, 32, 33, -1,
      33, 32, 12, -1,
      33, 12, 14, -1,
      34, 35, 36, -1,
      37, 38, 39, -1,
      40, 41, 42, -1,
      19, 25, 43, -1,
      42, 41, 19, -1,
      44, 19, 41, -1,
      45, 46, 40, -1,
      40, 46, 47, -1,
      40, 47, 41, -1,
      41, 47, 48, -1,
      41, 48, 44, -1,
      49, 50, 51, -1,
      51, 50, 43, -1,
      51, 43, 52, -1,
      52, 43, 25, -1,
      52, 25, 27, -1,
      38, 45, 39, -1,
      39, 45, 40, -1,
      39, 40, 53, -1,
      53, 40, 42, -1,
      53, 42, 54, -1,
      54, 42, 19, -1,
      55, 49, 56, -1,
      56, 49, 51, -1,
      56, 51, 57, -1,
      57, 51, 52, -1,
      57, 52, 58, -1,
      58, 52, 27, -1,
      58, 27, 29, -1,
      36, 55, 59, -1,
      59, 55, 56, -1,
      59, 56, 60, -1,
      60, 56, 57, -1,
      60, 57, 61, -1,
      61, 57, 58, -1,
      61, 58, 62, -1,
      62, 58, 29, -1,
      62, 29, 31, -1,
      63, 64, 65, -1,
      65, 64, 34, -1,
      34, 36, 65, -1,
      65, 36, 59, -1,
      65, 59, 66, -1,
      66, 59, 60, -1,
      66, 60, 67, -1,
      67, 60, 61, -1,
      67, 61, 68, -1,
      68, 61, 62, -1,
      68, 62, 69, -1,
      69, 62, 31, -1,
      69, 31, 33, -1,
      70, 1, 63, -1,
      63, 65, 70, -1,
      70, 65, 66, -1,
      70, 66, 71, -1,
      71, 66, 67, -1,
      71, 67, 72, -1,
      72, 67, 68, -1,
      72, 68, 73, -1,
      73, 68, 69, -1,
      73, 69, 74, -1,
      74, 69, 33, -1,
      74, 33, 14, -1,
      50, 19, 43, -1,
      35, 37, 36, -1,
      36, 37, 39, -1,
      36, 39, 55, -1,
      55, 39, 53, -1,
      55, 53, 49, -1,
      49, 53, 54, -1,
      49, 54, 50, -1,
      50, 54, 19, -1,
      12, 32, 75, -1,
      76, 77, 78, -1,
      17, 79, 80, -1,
      78, 77, 17, -1,
      81, 17, 77, -1,
      81, 77, 82, -1,
      82, 77, 76, -1,
      82, 76, 83, -1,
      24, 17, 81, -1,
      84, 85, 86, -1,
      86, 85, 80, -1,
      86, 80, 87, -1,
      87, 80, 79, -1,
      87, 79, 88, -1,
      24, 81, 26, -1,
      26, 81, 82, -1,
      26, 82, 28, -1,
      28, 82, 83, -1,
      28, 83, 30, -1,
      89, 84, 90, -1,
      90, 84, 86, -1,
      90, 86, 91, -1,
      91, 86, 87, -1,
      91, 87, 92, -1,
      92, 87, 88, -1,
      92, 88, 93, -1,
      94, 89, 95, -1,
      95, 89, 90, -1,
      95, 90, 96, -1,
      96, 90, 91, -1,
      96, 91, 97, -1,
      97, 91, 92, -1,
      97, 92, 98, -1,
      98, 92, 93, -1,
      98, 93, 99, -1,
      32, 94, 75, -1,
      75, 94, 95, -1,
      75, 95, 100, -1,
      100, 95, 96, -1,
      100, 96, 101, -1,
      101, 96, 97, -1,
      101, 97, 102, -1,
      102, 97, 98, -1,
      102, 98, 103, -1,
      103, 98, 99, -1,
      103, 99, 104, -1,
      12, 75, 105, -1,
      105, 75, 100, -1,
      105, 100, 106, -1,
      106, 100, 101, -1,
      106, 101, 107, -1,
      107, 101, 102, -1,
      107, 102, 108, -1,
      108, 102, 103, -1,
      108, 103, 109, -1,
      109, 103, 104, -1,
      109, 104, 11, -1,
      85, 17, 80, -1,
      32, 30, 94, -1,
      94, 30, 83, -1,
      94, 83, 89, -1,
      89, 83, 76, -1,
      89, 76, 84, -1,
      84, 76, 78, -1,
      84, 78, 85, -1,
      85, 78, 17, -1,
      14, 15, 110, -1,
      14, 110, 74, -1,
      74, 110, 111, -1,
      74, 111, 73, -1,
      73, 111, 112, -1,
      73, 112, 72, -1,
      72, 112, 113, -1,
      72, 113, 71, -1,
      71, 113, 114, -1,
      71, 114, 70, -1,
      70, 114, 3, -1,
      70, 3, 1, -1,
      19, 44, 18, -1,
      18, 44, 115, -1,
      115, 44, 116, -1,
      116, 44, 48, -1,
      116, 48, 117, -1,
      117, 48, 47, -1,
      117, 47, 118, -1,
      118, 47, 46, -1,
      118, 46, 119, -1,
      119, 46, 45, -1,
      119, 45, 120, -1,
      120, 45, 38, -1,
      120, 38, 121, -1,
      121, 38, 37, -1,
      121, 37, 122, -1,
      122, 37, 35, -1,
      122, 35, 123, -1,
      123, 35, 34, -1,
      123, 34, 124, -1,
      124, 34, 64, -1,
      124, 64, 125, -1,
      64, 63, 125, -1,
      125, 63, 1, -1,
      125, 1, 0, -1,
      16, 18, 126, -1,
      16, 126, 127, -1,
      127, 126, 128, -1,
      127, 128, 129, -1,
      129, 128, 130, -1,
      129, 130, 131, -1,
      131, 130, 132, -1,
      131, 132, 133, -1,
      133, 132, 134, -1,
      133, 134, 135, -1,
      135, 134, 7, -1,
      135, 7, 5, -1,
      17, 16, 136, -1,
      17, 136, 79, -1,
      79, 136, 137, -1,
      79, 137, 88, -1,
      88, 137, 138, -1,
      88, 138, 93, -1,
      93, 138, 139, -1,
      93, 139, 99, -1,
      99, 139, 140, -1,
      99, 140, 104, -1,
      104, 140, 10, -1,
      104, 10, 11, -1,
      11, 9, 141, -1,
      11, 141, 109, -1,
      109, 141, 142, -1,
      109, 142, 108, -1,
      108, 142, 143, -1,
      108, 143, 107, -1,
      107, 143, 144, -1,
      107, 144, 106, -1,
      106, 144, 145, -1,
      106, 145, 105, -1,
      105, 145, 13, -1,
      105, 13, 12, -1,
      23, 21, 146, -1,
      23, 146, 147, -1,
      147, 146, 148, -1,
      147, 148, 149, -1,
      149, 148, 150, -1,
      149, 150, 151, -1,
      151, 150, 152, -1,
      151, 152, 153, -1,
      153, 152, 154, -1,
      153, 154, 155, -1,
      155, 154, 15, -1,
      155, 15, 13, -1,
      114, 113, 156, -1,
      156, 113, 157, -1,
      156, 157, 158, -1,
      158, 157, 159, -1,
      158, 159, 160, -1,
      160, 159, 161, -1,
      160, 161, 162, -1,
      162, 161, 163, -1,
      162, 163, 164, -1,
      164, 163, 165, -1,
      164, 165, 21, -1,
      113, 112, 157, -1,
      157, 112, 166, -1,
      157, 166, 159, -1,
      159, 166, 167, -1,
      159, 167, 161, -1,
      161, 167, 168, -1,
      161, 168, 163, -1,
      163, 168, 169, -1,
      163, 169, 165, -1,
      165, 169, 170, -1,
      165, 170, 21, -1,
      3, 114, 171, -1,
      171, 114, 156, -1,
      171, 156, 172, -1,
      172, 156, 158, -1,
      172, 158, 173, -1,
      173, 158, 160, -1,
      173, 160, 174, -1,
      174, 160, 162, -1,
      174, 162, 175, -1,
      175, 162, 164, -1,
      175, 164, 21, -1,
      111, 110, 176, -1,
      176, 110, 177, -1,
      176, 177, 178, -1,
      178, 177, 179, -1,
      178, 179, 180, -1,
      180, 179, 181, -1,
      180, 181, 182, -1,
      182, 181, 183, -1,
      182, 183, 184, -1,
      184, 183, 185, -1,
      184, 185, 21, -1,
      110, 15, 177, -1,
      177, 15, 154, -1,
      177, 154, 179, -1,
      179, 154, 152, -1,
      179, 152, 181, -1,
      181, 152, 150, -1,
      181, 150, 183, -1,
      183, 150, 148, -1,
      183, 148, 185, -1,
      185, 148, 146, -1,
      185, 146, 21, -1,
      112, 111, 166, -1,
      166, 111, 176, -1,
      166, 176, 167, -1,
      167, 176, 178, -1,
      167, 178, 168, -1,
      168, 178, 180, -1,
      168, 180, 169, -1,
      169, 180, 182, -1,
      169, 182, 170, -1,
      170, 182, 184, -1,
      170, 184, 21, -1,
      7, 134, 186, -1,
      134, 132, 187, -1,
      188, 189, 190, -1,
      190, 189, 18, -1,
      126, 18, 189, -1,
      191, 18, 115, -1,
      192, 18, 191, -1,
      126, 189, 128, -1,
      128, 189, 188, -1,
      128, 188, 130, -1,
      193, 194, 195, -1,
      195, 194, 192, -1,
      195, 192, 196, -1,
      196, 192, 191, -1,
      196, 191, 197, -1,
      115, 116, 191, -1,
      191, 116, 117, -1,
      191, 117, 197, -1,
      197, 117, 118, -1,
      197, 118, 119, -1,
      198, 193, 199, -1,
      199, 193, 195, -1,
      199, 195, 200, -1,
      200, 195, 196, -1,
      200, 196, 201, -1,
      201, 196, 197, -1,
      201, 197, 202, -1,
      202, 197, 119, -1,
      202, 119, 120, -1,
      132, 198, 187, -1,
      187, 198, 199, -1,
      187, 199, 203, -1,
      203, 199, 200, -1,
      203, 200, 204, -1,
      204, 200, 201, -1,
      204, 201, 205, -1,
      205, 201, 202, -1,
      205, 202, 206, -1,
      206, 202, 120, -1,
      206, 120, 121, -1,
      134, 187, 186, -1,
      186, 187, 203, -1,
      186, 203, 207, -1,
      207, 203, 204, -1,
      207, 204, 208, -1,
      208, 204, 205, -1,
      208, 205, 209, -1,
      209, 205, 206, -1,
      209, 206, 210, -1,
      194, 18, 192, -1,
      132, 130, 198, -1,
      198, 130, 188, -1,
      198, 188, 193, -1,
      193, 188, 190, -1,
      193, 190, 194, -1,
      194, 190, 18, -1,
      121, 122, 206, -1,
      206, 122, 123, -1,
      206, 123, 210, -1,
      210, 123, 124, -1,
      210, 124, 125, -1,
      7, 186, 211, -1,
      211, 186, 207, -1,
      211, 207, 212, -1,
      212, 207, 208, -1,
      212, 208, 213, -1,
      213, 208, 209, -1,
      213, 209, 214, -1,
      214, 209, 210, -1,
      214, 210, 215, -1,
      215, 210, 125, -1,
      215, 125, 0, -1,
      10, 140, 216, -1,
      217, 218, 219, -1,
      16, 127, 220, -1,
      219, 218, 16, -1,
      221, 16, 218, -1,
      221, 218, 222, -1,
      222, 218, 217, -1,
      222, 217, 223, -1,
      136, 16, 221, -1,
      224, 225, 226, -1,
      226, 225, 220, -1,
      226, 220, 227, -1,
      227, 220, 127, -1,
      227, 127, 129, -1,
      136, 221, 137, -1,
      137, 221, 222, -1,
      137, 222, 138, -1,
      138, 222, 223, -1,
      138, 223, 139, -1,
      228, 224, 229, -1,
      229, 224, 226, -1,
      229, 226, 230, -1,
      230, 226, 227, -1,
      230, 227, 231, -1,
      231, 227, 129, -1,
      231, 129, 131, -1,
      232, 228, 233, -1,
      233, 228, 229, -1,
      233, 229, 234, -1,
      234, 229, 230, -1,
      234, 230, 235, -1,
      235, 230, 231, -1,
      235, 231, 236, -1,
      236, 231, 131, -1,
      236, 131, 133, -1,
      140, 232, 216, -1,
      216, 232, 233, -1,
      216, 233, 237, -1,
      237, 233, 234, -1,
      237, 234, 238, -1,
      238, 234, 235, -1,
      238, 235, 239, -1,
      239, 235, 236, -1,
      239, 236, 240, -1,
      240, 236, 133, -1,
      240, 133, 135, -1,
      10, 216, 241, -1,
      241, 216, 237, -1,
      241, 237, 242, -1,
      242, 237, 238, -1,
      242, 238, 243, -1,
      243, 238, 239, -1,
      243, 239, 244, -1,
      244, 239, 240, -1,
      244, 240, 245, -1,
      245, 240, 135, -1,
      245, 135, 5, -1,
      225, 16, 220, -1,
      140, 139, 232, -1,
      232, 139, 223, -1,
      232, 223, 228, -1,
      228, 223, 217, -1,
      228, 217, 224, -1,
      224, 217, 219, -1,
      224, 219, 225, -1,
      225, 219, 16, -1,
      145, 144, 246, -1,
      246, 144, 247, -1,
      246, 247, 248, -1,
      248, 247, 249, -1,
      248, 249, 250, -1,
      250, 249, 251, -1,
      250, 251, 252, -1,
      252, 251, 253, -1,
      252, 253, 254, -1,
      254, 253, 255, -1,
      254, 255, 23, -1,
      144, 143, 247, -1,
      247, 143, 256, -1,
      247, 256, 249, -1,
      249, 256, 257, -1,
      249, 257, 251, -1,
      251, 257, 258, -1,
      251, 258, 253, -1,
      253, 258, 259, -1,
      253, 259, 255, -1,
      255, 259, 260, -1,
      255, 260, 23, -1,
      13, 145, 155, -1,
      155, 145, 246, -1,
      155, 246, 153, -1,
      153, 246, 248, -1,
      153, 248, 151, -1,
      151, 248, 250, -1,
      151, 250, 149, -1,
      149, 250, 252, -1,
      149, 252, 147, -1,
      147, 252, 254, -1,
      147, 254, 23, -1,
      142, 141, 261, -1,
      261, 141, 262, -1,
      261, 262, 263, -1,
      263, 262, 264, -1,
      263, 264, 265, -1,
      265, 264, 266, -1,
      265, 266, 267, -1,
      267, 266, 268, -1,
      267, 268, 269, -1,
      269, 268, 270, -1,
      269, 270, 23, -1,
      141, 9, 262, -1,
      262, 9, 271, -1,
      262, 271, 264, -1,
      264, 271, 272, -1,
      264, 272, 266, -1,
      266, 272, 273, -1,
      266, 273, 268, -1,
      268, 273, 274, -1,
      268, 274, 270, -1,
      270, 274, 275, -1,
      270, 275, 23, -1,
      143, 142, 256, -1,
      256, 142, 261, -1,
      256, 261, 257, -1,
      257, 261, 263, -1,
      257, 263, 258, -1,
      258, 263, 265, -1,
      258, 265, 259, -1,
      259, 265, 267, -1,
      259, 267, 260, -1,
      260, 267, 269, -1,
      260, 269, 23, -1,
      21, 20, 276, -1,
      21, 276, 175, -1,
      175, 276, 277, -1,
      175, 277, 174, -1,
      174, 277, 278, -1,
      174, 278, 173, -1,
      173, 278, 279, -1,
      173, 279, 172, -1,
      172, 279, 280, -1,
      172, 280, 171, -1,
      171, 280, 2, -1,
      171, 2, 3, -1,
      0, 2, 281, -1,
      0, 281, 215, -1,
      215, 281, 282, -1,
      215, 282, 214, -1,
      214, 282, 283, -1,
      214, 283, 213, -1,
      213, 283, 284, -1,
      213, 284, 212, -1,
      212, 284, 285, -1,
      212, 285, 211, -1,
      211, 285, 6, -1,
      211, 6, 7, -1,
      5, 4, 286, -1,
      5, 286, 245, -1,
      245, 286, 287, -1,
      245, 287, 244, -1,
      244, 287, 288, -1,
      244, 288, 243, -1,
      243, 288, 289, -1,
      243, 289, 242, -1,
      242, 289, 290, -1,
      242, 290, 241, -1,
      241, 290, 8, -1,
      241, 8, 10, -1,
      22, 23, 275, -1,
      22, 275, 291, -1,
      291, 275, 274, -1,
      291, 274, 292, -1,
      292, 274, 273, -1,
      292, 273, 293, -1,
      293, 273, 272, -1,
      293, 272, 294, -1,
      294, 272, 271, -1,
      294, 271, 295, -1,
      295, 271, 9, -1,
      295, 9, 8, -1,
      285, 284, 296, -1,
      296, 284, 297, -1,
      296, 297, 298, -1,
      298, 297, 299, -1,
      298, 299, 300, -1,
      300, 299, 301, -1,
      300, 301, 302, -1,
      302, 301, 303, -1,
      302, 303, 304, -1,
      304, 303, 305, -1,
      304, 305, 20, -1,
      284, 283, 297, -1,
      297, 283, 306, -1,
      297, 306, 299, -1,
      299, 306, 307, -1,
      299, 307, 301, -1,
      301, 307, 308, -1,
      301, 308, 303, -1,
      303, 308, 309, -1,
      303, 309, 305, -1,
      305, 309, 310, -1,
      305, 310, 20, -1,
      6, 285, 311, -1,
      311, 285, 296, -1,
      311, 296, 312, -1,
      312, 296, 298, -1,
      312, 298, 313, -1,
      313, 298, 300, -1,
      313, 300, 314, -1,
      314, 300, 302, -1,
      314, 302, 315, -1,
      315, 302, 304, -1,
      315, 304, 20, -1,
      282, 281, 316, -1,
      316, 281, 317, -1,
      316, 317, 318, -1,
      318, 317, 319, -1,
      318, 319, 320, -1,
      320, 319, 321, -1,
      320, 321, 322, -1,
      322, 321, 323, -1,
      322, 323, 324, -1,
      324, 323, 325, -1,
      324, 325, 20, -1,
      281, 2, 317, -1,
      317, 2, 280, -1,
      317, 280, 319, -1,
      319, 280, 279, -1,
      319, 279, 321, -1,
      321, 279, 278, -1,
      321, 278, 323, -1,
      323, 278, 277, -1,
      323, 277, 325, -1,
      325, 277, 276, -1,
      325, 276, 20, -1,
      283, 282, 306, -1,
      306, 282, 316, -1,
      306, 316, 307, -1,
      307, 316, 318, -1,
      307, 318, 308, -1,
      308, 318, 320, -1,
      308, 320, 309, -1,
      309, 320, 322, -1,
      309, 322, 310, -1,
      310, 322, 324, -1,
      310, 324, 20, -1,
      290, 289, 326, -1,
      326, 289, 327, -1,
      326, 327, 328, -1,
      328, 327, 329, -1,
      328, 329, 330, -1,
      330, 329, 331, -1,
      330, 331, 332, -1,
      332, 331, 333, -1,
      332, 333, 334, -1,
      334, 333, 335, -1,
      334, 335, 22, -1,
      289, 288, 327, -1,
      327, 288, 336, -1,
      327, 336, 329, -1,
      329, 336, 337, -1,
      329, 337, 331, -1,
      331, 337, 338, -1,
      331, 338, 333, -1,
      333, 338, 339, -1,
      333, 339, 335, -1,
      335, 339, 340, -1,
      335, 340, 22, -1,
      8, 290, 295, -1,
      295, 290, 326, -1,
      295, 326, 294, -1,
      294, 326, 328, -1,
      294, 328, 293, -1,
      293, 328, 330, -1,
      293, 330, 292, -1,
      292, 330, 332, -1,
      292, 332, 291, -1,
      291, 332, 334, -1,
      291, 334, 22, -1,
      287, 286, 341, -1,
      341, 286, 342, -1,
      341, 342, 343, -1,
      343, 342, 344, -1,
      343, 344, 345, -1,
      345, 344, 346, -1,
      345, 346, 347, -1,
      347, 346, 348, -1,
      347, 348, 349, -1,
      349, 348, 350, -1,
      349, 350, 22, -1,
      286, 4, 342, -1,
      342, 4, 351, -1,
      342, 351, 344, -1,
      344, 351, 352, -1,
      344, 352, 346, -1,
      346, 352, 353, -1,
      346, 353, 348, -1,
      348, 353, 354, -1,
      348, 354, 350, -1,
      350, 354, 355, -1,
      350, 355, 22, -1,
      288, 287, 336, -1,
      336, 287, 341, -1,
      336, 341, 337, -1,
      337, 341, 343, -1,
      337, 343, 338, -1,
      338, 343, 345, -1,
      338, 345, 339, -1,
      339, 345, 347, -1,
      339, 347, 340, -1,
      340, 347, 349, -1,
      340, 349, 22, -1,
      20, 22, 355, -1,
      20, 355, 315, -1,
      315, 355, 354, -1,
      315, 354, 314, -1,
      314, 354, 353, -1,
      314, 353, 313, -1,
      313, 353, 352, -1,
      313, 352, 312, -1,
      312, 352, 351, -1,
      312, 351, 311, -1,
      311, 351, 4, -1,
      311, 4, 6, -1,
    ]
  }
}

Shape {
  appearance Appearance {
    material Material {
      diffuseColor 1.0000 1.0000 1.0000
      specularColor 0.5020 0.5020 0.5020
      ambientIntensity 0.2
      transparency 0.0000
      shininess 0.5
    }
  }
  geometry IndexedFaceSet {
    ccw TRUE
    solid FALSE
    coord DEF co Coordinate {
      point [
        -2.401575 1.049213 -1.161417,
        -2.401575 0.950787 -1.161417,
        -2.404435 0.950787 -1.184972,
        -2.404435 1.049213 -1.184972,
        -2.412849 0.950787 -1.207158,
        -2.412849 1.049213 -1.207158,
        -2.426328 0.950787 -1.226685,
        -2.426328 1.049213 -1.226685,
        -2.444088 0.950787 -1.242420,
        -2.444088 1.049213 -1.242420,
        -2.465098 0.950787 -1.253446,
        -2.465098 1.049213 -1.253446,
        -2.488136 0.950787 -1.259125,
        -2.488136 1.049213 -1.259125,
        -2.511864 0.950787 -1.259125,
        -2.511864 1.049213 -1.259125,
        -2.534902 0.950787 -1.253446,
        -2.534902 1.049213 -1.253446,
        -2.555912 0.950787 -1.242420,
        -2.555912 1.049213 -1.242420,
        -2.573672 0.950787 -1.226685,
        -2.573672 1.049213 -1.226685,
        -2.587151 0.950787 -1.207158,
        -2.587151 1.049213 -1.207158,
        -2.595565 0.950787 -1.184972,
        -2.595565 1.049213 -1.184972,
        -2.598425 0.950787 -1.161417,
        -2.598425 1.049213 -1.161417,
        -2.401575 1.049213 0.000000,
        -2.401575 0.950787 0.000000,
        -2.598425 0.950787 0.000000,
        -2.598425 1.049213 0.000000,
        -2.598425 -1.049213 -1.161417,
        -2.598425 -0.950787 -1.161417,
        -2.595565 -0.950787 -1.184972,
        -2.595565 -1.049213 -1.184972,
        -2.587151 -0.950787 -1.207158,
        -2.587151 -1.049213 -1.207158,
        -2.573672 -0.950787 -1.226685,
        -2.573672 -1.049213 -1.226685,
        -2.555912 -0.950787 -1.242420,
        -2.555912 -1.049213 -1.242420,
        -2.534902 -0.950787 -1.253446,
        -2.534902 -1.049213 -1.253446,
        -2.511864 -0.950787 -1.259125,
        -2.511864 -1.049213 -1.259125,
        -2.488136 -0.950787 -1.259125,
        -2.488136 -1.049213 -1.259125,
        -2.465098 -0.950787 -1.253446,
        -2.465098 -1.049213 -1.253446,
        -2.444088 -0.950787 -1.242420,
        -2.444088 -1.049213 -1.242420,
        -2.426328 -0.950787 -1.226685,
        -2.426328 -1.049213 -1.226685,
        -2.412849 -0.950787 -1.207158,
        -2.412849 -1.049213 -1.207158,
        -2.404435 -0.950787 -1.184972,
        -2.404435 -1.049213 -1.184972,
        -2.401575 -0.950787 -1.161417,
        -2.401575 -1.049213 -1.161417,
        -2.401575 -0.950787 0.000000,
        -2.401575 -1.049213 0.000000,
        -2.598425 -1.049213 0.000000,
        -2.598425 -0.950787 0.000000,
        -0.401575 -0.950787 -1.161417,
        -0.401575 -1.049213 -1.161417,
        -0.404435 -1.049213 -1.184972,
        -0.404435 -0.950787 -1.184972,
        -0.412849 -1.049213 -1.207158,
        -0.412849 -0.950787 -1.207158,
        -0.426328 -1.049213 -1.226685,
        -0.426328 -0.950787 -1.226685,
        -0.444088 -1.049213 -1.242420,
        -0.444088 -0.950787 -1.242420,
        -0.465098 -1.049213 -1.253446,
        -0.465098 -0.950787 -1.253446,
        -0.488136 -1.049213 -1.259125,
        -0.488136 -0.950787 -1.259125,
        -0.511864 -1.049213 -1.259125,
        -0.511864 -0.950787 -1.259125,
        -0.534902 -1.049213 -1.253446,
        -0.534902 -0.950787 -1.253446,
        -0.555912 -1.049213 -1.242420,
        -0.555912 -0.950787 -1.242420,
        -0.573672 -1.049213 -1.226685,
        -0.573672 -0.950787 -1.226685,
        -0.587151 -1.049213 -1.207158,
        -0.587151 -0.950787 -1.207158,
        -0.595565 -1.049213 -1.184972,
        -0.595565 -0.950787 -1.184972,
        -0.598425 -1.049213 -1.161417,
        -0.598425 -0.950787 -1.161417,
        -0.401575 -0.950787 0.000000,
        -0.401575 -1.049213 0.000000,
        -0.598425 -1.049213 0.000000,
        -0.598425 -0.950787 0.000000,
        -0.401575 1.049213 -1.161417,
        -0.401575 0.950787 -1.161417,
        -0.404435 0.950787 -1.184972,
        -0.404435 1.049213 -1.184972,
        -0.412849 0.950787 -1.207158,
        -0.412849 1.049213 -1.207158,
        -0.426328 0.950787 -1.226685,
        -0.426328 1.049213 -1.226685,
        -0.444088 0.950787 -1.242420,
        -0.444088 1.049213 -1.242420,
        -0.465098 0.950787 -1.253446,
        -0.465098 1.049213 -1.253446,
        -0.488136 0.950787 -1.259125,
        -0.488136 1.049213 -1.259125,
        -0.511864 0.950787 -1.259125,
        -0.511864 1.049213 -1.259125,
        -0.534902 0.950787 -1.253446,
        -0.534902 1.049213 -1.253446,
        -0.555912 0.950787 -1.242420,
        -0.555912 1.049213 -1.242420,
        -0.573672 0.950787 -1.226685,
        -0.573672 1.049213 -1.226685,
        -0.587151 0.950787 -1.207158,
        -0.587151 1.049213 -1.207158,
        -0.595565 0.950787 -1.184972,
        -0.595565 1.049213 -1.184972,
        -0.598425 0.950787 -1.161417,
        -0.598425 1.049213 -1.161417,
        -0.401575 1.049213 0.000000,
        -0.401575 0.950787 0.000000,
        -0.598425 0.950787 0.000000,
        -0.598425 1.049213 0.000000,
        0.401575 0.950787 -1.161417,
        0.401575 1.049213 -1.161417,
        0.404435 1.049213 -1.184972,
        0.404435 0.950787 -1.184972,
        0.412849 1.049213 -1.207158,
        0.412849 0.950787 -1.207158,
        0.426328 1.049213 -1.226685,
        0.426328 0.950787 -1.226685,
        0.444088 1.049213 -1.242420,
        0.444088 0.950787 -1.242420,
        0.465098 1.049213 -1.253446,
        0.465098 0.950787 -1.253446,
        0.488136 1.049213 -1.259125,
        0.488136 0.950787 -1.259125,
        0.511864 1.049213 -1.259125,
        0.511864 0.950787 -1.259125,
        0.534902 1.049213 -1.253446,
        0.534902 0.950787 -1.253446,
        0.555912 1.049213 -1.242420,
        0.555912 0.950787 -1.242420,
        0.573672 1.049213 -1.226685,
        0.573672 0.950787 -1.226685,
        0.587151 1.049213 -1.207158,
        0.587151 0.950787 -1.207158,
        0.595565 1.049213 -1.184972,
        0.595565 0.950787 -1.184972,
        0.598425 1.049213 -1.161417,
        0.598425 0.950787 -1.161417,
        0.598425 1.049213 0.000000,
        0.598425 0.950787 0.000000,
        0.401575 0.950787 0.000000,
        0.401575 1.049213 0.000000,
        0.401575 -1.049213 -1.161417,
        0.401575 -0.950787 -1.161417,
        0.404435 -0.950787 -1.184972,
        0.404435 -1.049213 -1.184972,
        0.412849 -0.950787 -1.207158,
        0.412849 -1.049213 -1.207158,
        0.426328 -0.950787 -1.226685,
        0.426328 -1.049213 -1.226685,
        0.444088 -0.950787 -1.242420,
        0.444088 -1.049213 -1.242420,
        0.465098 -0.950787 -1.253446,
        0.465098 -1.049213 -1.253446,
        0.488136 -0.950787 -1.259125,
        0.488136 -1.049213 -1.259125,
        0.511864 -0.950787 -1.259125,
        0.511864 -1.049213 -1.259125,
        0.534902 -0.950787 -1.253446,
        0.534902 -1.049213 -1.253446,
        0.555912 -0.950787 -1.242420,
        0.555912 -1.049213 -1.242420,
        0.573672 -0.950787 -1.226685,
        0.573672 -1.049213 -1.226685,
        0.587151 -0.950787 -1.207158,
        0.587151 -1.049213 -1.207158,
        0.595565 -0.950787 -1.184972,
        0.595565 -1.049213 -1.184972,
        0.598425 -0.950787 -1.161417,
        0.598425 -1.049213 -1.161417,
        0.598425 -0.950787 0.000000,
        0.598425 -1.049213 0.000000,
        0.401575 -1.049213 0.000000,
        0.401575 -0.950787 0.000000,
        1.598425 -0.950787 -1.161417,
        1.598425 -1.049213 -1.161417,
        1.595565 -1.049213 -1.184972,
        1.595565 -0.950787 -1.184972,
        1.587151 -1.049213 -1.207158,
        1.587151 -0.950787 -1.207158,
        1.573672 -1.049213 -1.226685,
        1.573672 -0.950787 -1.226685,
        1.555912 -1.049213 -1.242420,
        1.555912 -0.950787 -1.242420,
        1.534902 -1.049213 -1.253446,
        1.534902 -0.950787 -1.253446,
        1.511864 -1.049213 -1.259125,
        1.511864 -0.950787 -1.259125,
        1.488136 -1.049213 -1.259125,
        1.488136 -0.950787 -1.259125,
        1.465098 -1.049213 -1.253446,
        1.465098 -0.950787 -1.253446,
        1.444088 -1.049213 -1.242420,
        1.444088 -0.950787 -1.242420,
        1.426328 -1.049213 -1.226685,
        1.426328 -0.950787 -1.226685,
        1.412849 -1.049213 -1.207158,
        1.412849 -0.950787 -1.207158,
        1.404435 -1.049213 -1.184972,
        1.404435 -0.950787 -1.184972,
        1.401575 -1.049213 -1.161417,
        1.401575 -0.950787 -1.161417,
        1.598425 -0.950787 0.000000,
        1.598425 -1.049213 0.000000,
        1.401575 -1.049213 0.000000,
        1.401575 -0.950787 0.000000,
        1.598425 1.049213 -1.161417,
        1.598425 0.950787 -1.161417,
        1.595565 0.950787 -1.184972,
        1.595565 1.049213 -1.184972,
        1.587151 0.950787 -1.207158,
        1.587151 1.049213 -1.207158,
        1.573672 0.950787 -1.226685,
        1.573672 1.049213 -1.226685,
        1.555912 0.950787 -1.242420,
        1.555912 1.049213 -1.242420,
        1.534902 0.950787 -1.253446,
        1.534902 1.049213 -1.253446,
        1.511864 0.950787 -1.259125,
        1.511864 1.049213 -1.259125,
        1.488136 0.950787 -1.259125,
        1.488136 1.049213 -1.259125,
        1.465098 0.950787 -1.253446,
        1.465098 1.049213 -1.253446,
        1.444088 0.950787 -1.242420,
        1.444088 1.049213 -1.242420,
        1.426328 0.950787 -1.226685,
        1.426328 1.049213 -1.226685,
        1.412849 0.950787 -1.207158,
        1.412849 1.049213 -1.207158,
        1.404435 0.950787 -1.184972,
        1.404435 1.049213 -1.184972,
        1.401575 0.950787 -1.161417,
        1.401575 1.049213 -1.161417,
        1.598425 1.049213 0.000000,
        1.598425 0.950787 0.000000,
        1.401575 0.950787 0.000000,
        1.401575 1.049213 0.000000,
        2.660034 1.186044 -0.007874,
        2.660034 1.173081 -0.007874,
        2.660034 1.186044 0.000000,
        2.660034 1.173081 0.000000,
        2.704685 1.186044 -0.007874,
        2.704685 1.186044 0.000000,
        2.704685 1.291192 -0.007874,
        2.704685 1.291192 0.000000,
        2.720530 1.291192 -0.007874,
        2.720530 1.291192 0.000000,
        2.720530 1.173081 -0.007874,
        2.720530 1.173081 0.000000,
        2.562089 1.192166 -0.007874,
        2.562089 1.179203 -0.007874,
        2.562089 1.192166 -0.000000,
        2.562089 1.179203 -0.000000,
        2.562690 1.191828 -0.000000,
        2.562690 1.191828 -0.007874,
        2.566761 1.189732 -0.000000,
        2.566761 1.189732 -0.007874,
        2.571503 1.187852 0.000000,
        2.571503 1.187852 -0.007874,
        2.576146 1.186486 -0.000000,
        2.576146 1.186486 -0.007874,
        2.581161 1.185463 -0.000000,
        2.581161 1.185463 -0.007874,
        2.587047 1.184784 -0.000000,
        2.587047 1.184784 -0.007874,
        2.592404 1.184604 -0.000000,
        2.592404 1.184604 -0.007874,
        2.595184 1.184695 -0.000000,
        2.595184 1.184695 -0.007874,
        2.599805 1.185141 -0.000000,
        2.599805 1.185141 -0.007874,
        2.604058 1.185996 -0.000000,
        2.604058 1.185996 -0.007874,
        2.608164 1.187288 -0.000000,
        2.608164 1.187288 -0.007874,
        2.612084 1.189038 -0.000000,
        2.612084 1.189038 -0.007874,
        2.615714 1.191175 -0.000000,
        2.615714 1.191175 -0.007874,
        2.618902 1.193576 -0.000000,
        2.618902 1.193576 -0.007874,
        2.622153 1.196633 -0.000000,
        2.622153 1.196633 -0.007874,
        2.624855 1.199789 -0.000000,
        2.624855 1.199789 -0.007874,
        2.627378 1.203475 -0.000000,
        2.627378 1.203475 -0.007874,
        2.629366 1.207198 -0.000000,
        2.629366 1.207198 -0.007874,
        2.631185 1.211669 -0.000000,
        2.631185 1.211669 -0.007874,
        2.632457 1.216035 -0.000000,
        2.632457 1.216035 -0.007874,
        2.633461 1.221290 -0.000000,
        2.633461 1.221290 -0.007874,
        2.633967 1.226356 -0.000000,
        2.633967 1.226356 -0.007874,
        2.634107 1.230876 -0.000000,
        2.634107 1.230876 -0.007874,
        2.633892 1.236539 -0.000000,
        2.633892 1.236539 -0.007874,
        2.633292 1.241822 -0.000000,
        2.633292 1.241822 -0.007874,
        2.632286 1.246739 -0.000000,
        2.632286 1.246739 -0.007874,
        2.630969 1.251155 -0.000000,
        2.630969 1.251155 -0.007874,
        2.629209 1.255470 -0.000000,
        2.629209 1.255470 -0.007874,
        2.627072 1.259436 -0.000000,
        2.627072 1.259436 -0.007874,
        2.624557 1.263167 -0.000000,
        2.624557 1.263167 -0.007874,
        2.621588 1.266654 -0.000000,
        2.621588 1.266654 -0.007874,
        2.618297 1.269786 -0.000000,
        2.618297 1.269786 -0.007874,
        2.614776 1.272475 -0.000000,
        2.614776 1.272475 -0.007874,
        2.611013 1.274761 -0.000000,
        2.611013 1.274761 -0.007874,
        2.606999 1.276615 -0.000000,
        2.606999 1.276615 -0.007874,
        2.603026 1.277944 -0.000000,
        2.603026 1.277944 -0.007874,
        2.598539 1.278939 -0.000000,
        2.598539 1.278939 -0.007874,
        2.594157 1.279496 -0.000000,
        2.594157 1.279496 -0.007874,
        2.589748 1.279669 -0.000000,
        2.589748 1.279669 -0.007874,
        2.585615 1.279530 -0.000000,
        2.585615 1.279530 -0.007874,
        2.580681 1.278951 -0.000000,
        2.580681 1.278951 -0.007874,
        2.575801 1.277913 -0.000000,
        2.575801 1.277913 -0.007874,
        2.570920 1.276374 -0.000000,
        2.570920 1.276374 -0.007874,
        2.566349 1.274429 -0.000000,
        2.566349 1.274429 -0.007874,
        2.562089 1.272107 -0.000000,
        2.562089 1.272107 -0.007874,
        2.562089 1.287951 -0.007874,
        2.562089 1.287951 -0.000000,
        2.563024 1.288329 -0.000000,
        2.563024 1.288329 -0.007874,
        2.567359 1.289833 -0.000000,
        2.567359 1.289833 -0.007874,
        2.572263 1.291047 -0.000000,
        2.572263 1.291047 -0.007874,
        2.577789 1.291942 -0.000000,
        2.577789 1.291942 -0.007874,
        2.583709 1.292467 -0.000000,
        2.583709 1.292467 -0.007874,
        2.589883 1.292632 -0.000000,
        2.589883 1.292632 -0.007874,
        2.595804 1.292398 -0.000000,
        2.595804 1.292398 -0.007874,
        2.601404 1.291722 -0.000000,
        2.601404 1.291722 -0.007874,
        2.606650 1.290619 -0.000000,
        2.606650 1.290619 -0.007874,
        2.611593 1.289130 0.000000,
        2.611593 1.289130 -0.007874,
        2.616469 1.287143 -0.000000,
        2.616469 1.287143 -0.007874,
        2.621135 1.284690 -0.000000,
        2.621135 1.284690 -0.007874,
        2.625574 1.281790 -0.000000,
        2.625574 1.281790 -0.007874,
        2.629865 1.278352 0.000000,
        2.629865 1.278352 -0.007874,
        2.633719 1.274630 0.000000,
        2.633719 1.274630 -0.007874,
        2.636932 1.270955 0.000000,
        2.636932 1.270955 -0.007874,
        2.639985 1.266754 -0.000000,
        2.639985 1.266754 -0.007874,
        2.642726 1.262076 -0.000000,
        2.642726 1.262076 -0.007874,
        2.645057 1.257045 0.000000,
        2.645057 1.257045 -0.007874,
        2.646928 1.251793 0.000000,
        2.646928 1.251793 -0.007874,
        2.648256 1.246685 -0.000000,
        2.648256 1.246685 -0.007874,
        2.649270 1.240814 -0.000000,
        2.649270 1.240814 -0.007874,
        2.649783 1.235140 -0.000000,
        2.649783 1.235140 -0.007874,
        2.649952 1.229908 -0.000000,
        2.649952 1.229908 -0.007874,
        2.649896 1.227203 -0.000000,
        2.649896 1.227203 -0.007874,
        2.649521 1.221199 -0.000000,
        2.649521 1.221199 -0.007874,
        2.648709 1.215677 -0.000000,
        2.648709 1.215677 -0.007874,
        2.647516 1.210409 -0.000000,
        2.647516 1.210409 -0.007874,
        2.645939 1.205485 -0.000000,
        2.645939 1.205485 -0.007874,
        2.643953 1.200795 -0.000000,
        2.643953 1.200795 -0.007874,
        2.641514 1.196302 -0.000000,
        2.641514 1.196302 -0.007874,
        2.638692 1.192132 -0.000000,
        2.638692 1.192132 -0.007874,
        2.635543 1.188317 -0.000000,
        2.635543 1.188317 -0.007874,
        2.635304 1.188057 -0.000000,
        2.635304 1.188057 -0.007874,
        2.631700 1.184533 -0.000000,
        2.631700 1.184533 -0.007874,
        2.628024 1.181545 -0.000000,
        2.628024 1.181545 -0.007874,
        2.623996 1.178893 -0.000000,
        2.623996 1.178893 -0.007874,
        2.619952 1.176791 -0.000000,
        2.619952 1.176791 -0.007874,
        2.615110 1.174845 -0.000000,
        2.615110 1.174845 -0.007874,
        2.609919 1.173330 -0.000000,
        2.609919 1.173330 -0.007874,
        2.604598 1.172315 -0.000000,
        2.604598 1.172315 -0.007874,
        2.599461 1.171805 -0.000000,
        2.599461 1.171805 -0.007874,
        2.594587 1.171641 -0.000000,
        2.594587 1.171641 -0.007874,
        2.592800 1.171665 -0.000000,
        2.592800 1.171665 -0.007874,
        2.586728 1.171967 -0.000000,
        2.586728 1.171967 -0.007874,
        2.581061 1.172665 -0.000000,
        2.581061 1.172665 -0.007874,
        2.575966 1.173705 -0.000000,
        2.575966 1.173705 -0.007874,
        2.571152 1.175101 -0.000000,
        2.571152 1.175101 -0.007874,
        2.566596 1.176885 -0.000000,
        2.566596 1.176885 -0.007874,
        2.475667 1.186044 -0.007874,
        2.475667 1.173081 -0.007874,
        2.475667 1.186044 0.000000,
        2.475667 1.173081 0.000000,
        2.523199 1.186044 -0.007874,
        2.523199 1.186044 0.000000,
        2.523199 1.226375 -0.007874,
        2.523199 1.226375 0.000000,
        2.481428 1.226375 -0.007874,
        2.481428 1.226375 0.000000,
        2.481428 1.239338 -0.007874,
        2.481428 1.239338 0.000000,
        2.523199 1.239338 -0.007874,
        2.523199 1.239338 0.000000,
        2.523199 1.278228 -0.007874,
        2.523199 1.278228 0.000000,
        2.478548 1.278228 -0.007874,
        2.478548 1.278228 0.000000,
        2.478548 1.291192 -0.007874,
        2.478548 1.291192 0.000000,
        2.539043 1.291192 -0.007874,
        2.539043 1.291192 0.000000,
        2.539043 1.173081 -0.007874,
        2.539043 1.173081 0.000000,
      ]
    }
    coordIndex [
      0, 1, 2, -1,
      0, 2, 3, -1,
      3, 2, 4, -1,
      3, 4, 5, -1,
      5, 4, 6, -1,
      5, 6, 7, -1,
      7, 6, 8, -1,
      7, 8, 9, -1,
      9, 8, 10, -1,
      9, 10, 11, -1,
      11, 10, 12, -1,
      11, 12, 13, -1,
      13, 12, 14, -1,
      13, 14, 15, -1,
      15, 14, 16, -1,
      15, 16, 17, -1,
      17, 16, 18, -1,
      17, 18, 19, -1,
      19, 18, 20, -1,
      19, 20, 21, -1,
      21, 20, 22, -1,
      21, 22, 23, -1,
      23, 22, 24, -1,
      23, 24, 25, -1,
      25, 24, 26, -1,
      25, 26, 27, -1,
      0, 28, 1, -1,
      1, 28, 29, -1,
      8, 6, 26, -1,
      29, 30, 1, -1,
      1, 30, 26, -1,
      6, 4, 26, -1,
      26, 4, 2, -1,
      26, 2, 1, -1,
      14, 12, 26, -1,
      26, 12, 10, -1,
      26, 10, 8, -1,
      22, 20, 24, -1,
      24, 20, 18, -1,
      24, 18, 26, -1,
      26, 18, 16, -1,
      26, 16, 14, -1,
      26, 30, 27, -1,
      27, 30, 31, -1,
      31, 28, 27, -1,
      27, 28, 0, -1,
      27, 0, 3, -1,
      3, 5, 27, -1,
      27, 5, 7, -1,
      27, 7, 9, -1,
      9, 11, 27, -1,
      27, 11, 13, -1,
      27, 13, 15, -1,
      15, 17, 27, -1,
      27, 17, 19, -1,
      27, 19, 25, -1,
      25, 19, 21, -1,
      25, 21, 23, -1,
      31, 30, 28, -1,
      28, 30, 29, -1,
      32, 33, 34, -1,
      32, 34, 35, -1,
      35, 34, 36, -1,
      35, 36, 37, -1,
      37, 36, 38, -1,
      37, 38, 39, -1,
      39, 38, 40, -1,
      39, 40, 41, -1,
      41, 40, 42, -1,
      41, 42, 43, -1,
      43, 42, 44, -1,
      43, 44, 45, -1,
      45, 44, 46, -1,
      45, 46, 47, -1,
      47, 46, 48, -1,
      47, 48, 49, -1,
      49, 48, 50, -1,
      49, 50, 51, -1,
      51, 50, 52, -1,
      51, 52, 53, -1,
      53, 52, 54, -1,
      53, 54, 55, -1,
      55, 54, 56, -1,
      55, 56, 57, -1,
      57, 56, 58, -1,
      57, 58, 59, -1,
      58, 60, 59, -1,
      59, 60, 61, -1,
      59, 61, 62, -1,
      62, 32, 59, -1,
      59, 32, 35, -1,
      59, 35, 37, -1,
      37, 39, 59, -1,
      59, 39, 41, -1,
      59, 41, 57, -1,
      57, 41, 55, -1,
      43, 45, 51, -1,
      51, 45, 47, -1,
      51, 47, 49, -1,
      43, 51, 41, -1,
      41, 51, 53, -1,
      41, 53, 55, -1,
      32, 62, 33, -1,
      33, 62, 63, -1,
      63, 60, 33, -1,
      33, 60, 58, -1,
      33, 58, 34, -1,
      34, 58, 56, -1,
      34, 56, 54, -1,
      38, 50, 40, -1,
      40, 50, 48, -1,
      48, 46, 40, -1,
      40, 46, 44, -1,
      40, 44, 42, -1,
      54, 52, 34, -1,
      34, 52, 50, -1,
      34, 50, 36, -1,
      36, 50, 38, -1,
      63, 62, 60, -1,
      60, 62, 61, -1,
      64, 65, 66, -1,
      64, 66, 67, -1,
      67, 66, 68, -1,
      67, 68, 69, -1,
      69, 68, 70, -1,
      69, 70, 71, -1,
      71, 70, 72, -1,
      71, 72, 73, -1,
      73, 72, 74, -1,
      73, 74, 75, -1,
      75, 74, 76, -1,
      75, 76, 77, -1,
      77, 76, 78, -1,
      77, 78, 79, -1,
      79, 78, 80, -1,
      79, 80, 81, -1,
      81, 80, 82, -1,
      81, 82, 83, -1,
      83, 82, 84, -1,
      83, 84, 85, -1,
      85, 84, 86, -1,
      85, 86, 87, -1,
      87, 86, 88, -1,
      87, 88, 89, -1,
      89, 88, 90, -1,
      89, 90, 91, -1,
      64, 92, 65, -1,
      65, 92, 93, -1,
      65, 93, 94, -1,
      94, 90, 65, -1,
      65, 90, 88, -1,
      65, 88, 86, -1,
      86, 84, 65, -1,
      65, 84, 82, -1,
      65, 82, 80, -1,
      80, 78, 65, -1,
      65, 78, 76, -1,
      65, 76, 74, -1,
      74, 72, 65, -1,
      65, 72, 70, -1,
      65, 70, 66, -1,
      66, 70, 68, -1,
      90, 94, 91, -1,
      91, 94, 95, -1,
      85, 87, 64, -1,
      95, 92, 91, -1,
      91, 92, 64, -1,
      91, 64, 89, -1,
      89, 64, 87, -1,
      85, 64, 83, -1,
      83, 64, 67, -1,
      83, 67, 69, -1,
      69, 71, 83, -1,
      83, 71, 73, -1,
      83, 73, 75, -1,
      75, 77, 83, -1,
      83, 77, 79, -1,
      83, 79, 81, -1,
      95, 94, 92, -1,
      92, 94, 93, -1,
      96, 97, 98, -1,
      96, 98, 99, -1,
      99, 98, 100, -1,
      99, 100, 101, -1,
      101, 100, 102, -1,
      101, 102, 103, -1,
      103, 102, 104, -1,
      103, 104, 105, -1,
      105, 104, 106, -1,
      105, 106, 107, -1,
      107, 106, 108, -1,
      107, 108, 109, -1,
      109, 108, 110, -1,
      109, 110, 111, -1,
      111, 110, 112, -1,
      111, 112, 113, -1,
      113, 112, 114, -1,
      113, 114, 115, -1,
      115, 114, 116, -1,
      115, 116, 117, -1,
      117, 116, 118, -1,
      117, 118, 119, -1,
      119, 118, 120, -1,
      119, 120, 121, -1,
      121, 120, 122, -1,
      121, 122, 123, -1,
      96, 124, 97, -1,
      97, 124, 125, -1,
      97, 125, 126, -1,
      126, 122, 97, -1,
      97, 122, 120, -1,
      97, 120, 118, -1,
      118, 116, 97, -1,
      97, 116, 114, -1,
      97, 114, 112, -1,
      112, 110, 97, -1,
      97, 110, 108, -1,
      97, 108, 106, -1,
      106, 104, 97, -1,
      97, 104, 102, -1,
      97, 102, 98, -1,
      98, 102, 100, -1,
      122, 126, 123, -1,
      123, 126, 127, -1,
      117, 119, 96, -1,
      127, 124, 123, -1,
      123, 124, 96, -1,
      123, 96, 121, -1,
      121, 96, 119, -1,
      117, 96, 115, -1,
      115, 96, 99, -1,
      115, 99, 101, -1,
      101, 103, 115, -1,
      115, 103, 105, -1,
      115, 105, 107, -1,
      107, 109, 115, -1,
      115, 109, 111, -1,
      115, 111, 113, -1,
      127, 126, 124, -1,
      124, 126, 125, -1,
      128, 129, 130, -1,
      128, 130, 131, -1,
      131, 130, 132, -1,
      131, 132, 133, -1,
      133, 132, 134, -1,
      133, 134, 135, -1,
      135, 134, 136, -1,
      135, 136, 137, -1,
      137, 136, 138, -1,
      137, 138, 139, -1,
      139, 138, 140, -1,
      139, 140, 141, -1,
      141, 140, 142, -1,
      141, 142, 143, -1,
      143, 142, 144, -1,
      143, 144, 145, -1,
      145, 144, 146, -1,
      145, 146, 147, -1,
      147, 146, 148, -1,
      147, 148, 149, -1,
      149, 148, 150, -1,
      149, 150, 151, -1,
      151, 150, 152, -1,
      151, 152, 153, -1,
      153, 152, 154, -1,
      153, 154, 155, -1,
      154, 156, 155, -1,
      155, 156, 157, -1,
      128, 149, 151, -1,
      149, 128, 147, -1,
      147, 128, 131, -1,
      147, 131, 133, -1,
      157, 158, 155, -1,
      155, 158, 128, -1,
      155, 128, 153, -1,
      153, 128, 151, -1,
      133, 135, 147, -1,
      147, 135, 137, -1,
      147, 137, 139, -1,
      139, 141, 147, -1,
      147, 141, 143, -1,
      147, 143, 145, -1,
      128, 158, 129, -1,
      129, 158, 159, -1,
      159, 156, 129, -1,
      129, 156, 154, -1,
      132, 130, 146, -1,
      146, 130, 129, -1,
      146, 129, 148, -1,
      154, 152, 129, -1,
      129, 152, 150, -1,
      129, 150, 148, -1,
      144, 142, 136, -1,
      136, 142, 140, -1,
      136, 140, 138, -1,
      144, 136, 146, -1,
      146, 136, 134, -1,
      146, 134, 132, -1,
      159, 158, 156, -1,
      156, 158, 157, -1,
      160, 161, 162, -1,
      160, 162, 163, -1,
      163, 162, 164, -1,
      163, 164, 165, -1,
      165, 164, 166, -1,
      165, 166, 167, -1,
      167, 166, 168, -1,
      167, 168, 169, -1,
      169, 168, 170, -1,
      169, 170, 171, -1,
      171, 170, 172, -1,
      171, 172, 173, -1,
      173, 172, 174, -1,
      173, 174, 175, -1,
      175, 174, 176, -1,
      175, 176, 177, -1,
      177, 176, 178, -1,
      177, 178, 179, -1,
      179, 178, 180, -1,
      179, 180, 181, -1,
      181, 180, 182, -1,
      181, 182, 183, -1,
      183, 182, 184, -1,
      183, 184, 185, -1,
      185, 184, 186, -1,
      185, 186, 187, -1,
      186, 188, 187, -1,
      187, 188, 189, -1,
      160, 181, 183, -1,
      181, 160, 179, -1,
      179, 160, 163, -1,
      179, 163, 165, -1,
      189, 190, 187, -1,
      187, 190, 160, -1,
      187, 160, 185, -1,
      185, 160, 183, -1,
      165, 167, 179, -1,
      179, 167, 169, -1,
      179, 169, 171, -1,
      171, 173, 179, -1,
      179, 173, 175, -1,
      179, 175, 177, -1,
      160, 190, 161, -1,
      161, 190, 191, -1,
      191, 188, 161, -1,
      161, 188, 186, -1,
      164, 162, 178, -1,
      178, 162, 161, -1,
      178, 161, 180, -1,
      186, 184, 161, -1,
      161, 184, 182, -1,
      161, 182, 180, -1,
      176, 174, 168, -1,
      168, 174, 172, -1,
      168, 172, 170, -1,
      176, 168, 178, -1,
      178, 168, 166, -1,
      178, 166, 164, -1,
      191, 190, 188, -1,
      188, 190, 189, -1,
      192, 193, 194, -1,
      192, 194, 195, -1,
      195, 194, 196, -1,
      195, 196, 197, -1,
      197, 196, 198, -1,
      197, 198, 199, -1,
      199, 198, 200, -1,
      199, 200, 201, -1,
      201, 200, 202, -1,
      201, 202, 203, -1,
      203, 202, 204, -1,
      203, 204, 205, -1,
      205, 204, 206, -1,
      205, 206, 207, -1,
      207, 206, 208, -1,
      207, 208, 209, -1,
      209, 208, 210, -1,
      209, 210, 211, -1,
      211, 210, 212, -1,
      211, 212, 213, -1,
      213, 212, 214, -1,
      213, 214, 215, -1,
      215, 214, 216, -1,
      215, 216, 217, -1,
      217, 216, 218, -1,
      217, 218, 219, -1,
      192, 220, 193, -1,
      193, 220, 221, -1,
      221, 222, 193, -1,
      193, 222, 218, -1,
      218, 216, 193, -1,
      193, 216, 214, -1,
      193, 214, 194, -1,
      200, 198, 210, -1,
      210, 198, 212, -1,
      212, 198, 214, -1,
      214, 198, 196, -1,
      214, 196, 194, -1,
      210, 208, 206, -1,
      206, 204, 210, -1,
      210, 204, 202, -1,
      210, 202, 200, -1,
      218, 222, 219, -1,
      219, 222, 223, -1,
      223, 220, 219, -1,
      219, 220, 192, -1,
      219, 192, 217, -1,
      213, 215, 199, -1,
      199, 215, 197, -1,
      217, 192, 215, -1,
      215, 192, 195, -1,
      215, 195, 197, -1,
      213, 199, 211, -1,
      211, 199, 201, -1,
      211, 201, 203, -1,
      203, 205, 211, -1,
      211, 205, 207, -1,
      211, 207, 209, -1,
      223, 222, 220, -1,
      220, 222, 221, -1,
      224, 225, 226, -1,
      224, 226, 227, -1,
      227, 226, 228, -1,
      227, 228, 229, -1,
      229, 228, 230, -1,
      229, 230, 231, -1,
      231, 230, 232, -1,
      231, 232, 233, -1,
      233, 232, 234, -1,
      233, 234, 235, -1,
      235, 234, 236, -1,
      235, 236, 237, -1,
      237, 236, 238, -1,
      237, 238, 239, -1,
      239, 238, 240, -1,
      239, 240, 241, -1,
      241, 240, 242, -1,
      241, 242, 243, -1,
      243, 242, 244, -1,
      243, 244, 245, -1,
      245, 244, 246, -1,
      245, 246, 247, -1,
      247, 246, 248, -1,
      247, 248, 249, -1,
      249, 248, 250, -1,
      249, 250, 251, -1,
      224, 252, 225, -1,
      225, 252, 253, -1,
      253, 254, 225, -1,
      225, 254, 250, -1,
      250, 248, 225, -1,
      225, 248, 246, -1,
      225, 246, 226, -1,
      232, 230, 242, -1,
      242, 230, 244, -1,
      244, 230, 246, -1,
      246, 230, 228, -1,
      246, 228, 226, -1,
      242, 240, 238, -1,
      238, 236, 242, -1,
      242, 236, 234, -1,
      242, 234, 232, -1,
      250, 254, 251, -1,
      251, 254, 255, -1,
      255, 252, 251, -1,
      251, 252, 224, -1,
      251, 224, 249, -1,
      245, 247, 231, -1,
      231, 247, 229, -1,
      249, 224, 247, -1,
      247, 224, 227, -1,
      247, 227, 229, -1,
      245, 231, 243, -1,
      243, 231, 233, -1,
      243, 233, 235, -1,
      235, 237, 243, -1,
      243, 237, 239, -1,
      243, 239, 241, -1,
      255, 254, 252, -1,
      252, 254, 253, -1,
      256, 257, 258, -1,
      258, 257, 259, -1,
      260, 256, 261, -1,
      261, 256, 258, -1,
      262, 260, 263, -1,
      263, 260, 261, -1,
      264, 262, 265, -1,
      265, 262, 263, -1,
      266, 264, 267, -1,
      267, 264, 265, -1,
      257, 266, 259, -1,
      259, 266, 267, -1,
      262, 264, 260, -1,
      260, 264, 266, -1,
      260, 266, 256, -1,
      256, 266, 257, -1,
      258, 259, 261, -1,
      261, 259, 267, -1,
      261, 267, 263, -1,
      263, 267, 265, -1,
      268, 269, 270, -1,
      270, 269, 271, -1,
      268, 270, 272, -1,
      268, 272, 273, -1,
      273, 272, 274, -1,
      273, 274, 275, -1,
      275, 274, 276, -1,
      275, 276, 277, -1,
      277, 276, 278, -1,
      277, 278, 279, -1,
      279, 278, 280, -1,
      279, 280, 281, -1,
      281, 280, 282, -1,
      281, 282, 283, -1,
      283, 282, 284, -1,
      283, 284, 285, -1,
      285, 284, 286, -1,
      285, 286, 287, -1,
      287, 286, 288, -1,
      287, 288, 289, -1,
      289, 288, 290, -1,
      289, 290, 291, -1,
      291, 290, 292, -1,
      291, 292, 293, -1,
      293, 292, 294, -1,
      293, 294, 295, -1,
      295, 294, 296, -1,
      295, 296, 297, -1,
      297, 296, 298, -1,
      297, 298, 299, -1,
      299, 298, 300, -1,
      299, 300, 301, -1,
      301, 300, 302, -1,
      301, 302, 303, -1,
      303, 302, 304, -1,
      303, 304, 305, -1,
      305, 304, 306, -1,
      305, 306, 307, -1,
      307, 306, 308, -1,
      307, 308, 309, -1,
      309, 308, 310, -1,
      309, 310, 311, -1,
      311, 310, 312, -1,
      311, 312, 313, -1,
      313, 312, 314, -1,
      313, 314, 315, -1,
      315, 314, 316, -1,
      315, 316, 317, -1,
      317, 316, 318, -1,
      317, 318, 319, -1,
      319, 318, 320, -1,
      319, 320, 321, -1,
      321, 320, 322, -1,
      321, 322, 323, -1,
      323, 322, 324, -1,
      323, 324, 325, -1,
      325, 324, 326, -1,
      325, 326, 327, -1,
      327, 326, 328, -1,
      327, 328, 329, -1,
      329, 328, 330, -1,
      329, 330, 331, -1,
      331, 330, 332, -1,
      331, 332, 333, -1,
      333, 332, 334, -1,
      333, 334, 335, -1,
      335, 334, 336, -1,
      335, 336, 337, -1,
      337, 336, 338, -1,
      337, 338, 339, -1,
      339, 338, 340, -1,
      339, 340, 341, -1,
      341, 340, 342, -1,
      341, 342, 343, -1,
      343, 342, 344, -1,
      343, 344, 345, -1,
      345, 344, 346, -1,
      345, 346, 347, -1,
      347, 346, 348, -1,
      347, 348, 349, -1,
      349, 348, 350, -1,
      349, 350, 351, -1,
      351, 350, 352, -1,
      351, 352, 353, -1,
      353, 352, 354, -1,
      353, 354, 355, -1,
      355, 354, 356, -1,
      355, 356, 357, -1,
      357, 356, 358, -1,
      357, 358, 359, -1,
      359, 358, 360, -1,
      359, 360, 361, -1,
      362, 361, 363, -1,
      363, 361, 360, -1,
      362, 363, 364, -1,
      362, 364, 365, -1,
      365, 364, 366, -1,
      365, 366, 367, -1,
      367, 366, 368, -1,
      367, 368, 369, -1,
      369, 368, 370, -1,
      369, 370, 371, -1,
      371, 370, 372, -1,
      371, 372, 373, -1,
      373, 372, 374, -1,
      373, 374, 375, -1,
      375, 374, 376, -1,
      375, 376, 377, -1,
      377, 376, 378, -1,
      377, 378, 379, -1,
      379, 378, 380, -1,
      379, 380, 381, -1,
      381, 380, 382, -1,
      381, 382, 383, -1,
      383, 382, 384, -1,
      383, 384, 385, -1,
      385, 384, 386, -1,
      385, 386, 387, -1,
      387, 386, 388, -1,
      387, 388, 389, -1,
      389, 388, 390, -1,
      389, 390, 391, -1,
      391, 390, 392, -1,
      391, 392, 393, -1,
      393, 392, 394, -1,
      393, 394, 395, -1,
      395, 394, 396, -1,
      395, 396, 397, -1,
      397, 396, 398, -1,
      397, 398, 399, -1,
      399, 398, 400, -1,
      399, 400, 401, -1,
      401, 400, 402, -1,
      401, 402, 403, -1,
      403, 402, 404, -1,
      403, 404, 405, -1,
      405, 404, 406, -1,
      405, 406, 407, -1,
      407, 406, 408, -1,
      407, 408, 409, -1,
      409, 408, 410, -1,
      409, 410, 411, -1,
      411, 410, 412, -1,
      411, 412, 413, -1,
      413, 412, 414, -1,
      413, 414, 415, -1,
      415, 414, 416, -1,
      415, 416, 417, -1,
      417, 416, 418, -1,
      417, 418, 419, -1,
      419, 418, 420, -1,
      419, 420, 421, -1,
      421, 420, 422, -1,
      421, 422, 423, -1,
      423, 422, 424, -1,
      423, 424, 425, -1,
      425, 424, 426, -1,
      425, 426, 427, -1,
      427, 426, 428, -1,
      427, 428, 429, -1,
      429, 428, 430, -1,
      429, 430, 431, -1,
      431, 430, 432, -1,
      431, 432, 433, -1,
      433, 432, 434, -1,
      433, 434, 435, -1,
      435, 434, 436, -1,
      435, 436, 437, -1,
      437, 436, 438, -1,
      437, 438, 439, -1,
      439, 438, 440, -1,
      439, 440, 441, -1,
      441, 440, 442, -1,
      441, 442, 443, -1,
      443, 442, 444, -1,
      443, 444, 445, -1,
      445, 444, 446, -1,
      445, 446, 447, -1,
      447, 446, 448, -1,
      447, 448, 449, -1,
      449, 448, 450, -1,
      449, 450, 451, -1,
      451, 450, 452, -1,
      451, 452, 453, -1,
      453, 452, 454, -1,
      453, 454, 455, -1,
      455, 454, 456, -1,
      455, 456, 457, -1,
      457, 456, 458, -1,
      457, 458, 459, -1,
      459, 458, 460, -1,
      459, 460, 461, -1,
      461, 460, 271, -1,
      461, 271, 269, -1,
      291, 443, 445, -1,
      268, 273, 269, -1,
      269, 273, 275, -1,
      269, 275, 461, -1,
      461, 275, 277, -1,
      461, 277, 459, -1,
      459, 277, 279, -1,
      459, 279, 457, -1,
      457, 279, 281, -1,
      291, 445, 289, -1,
      289, 445, 447, -1,
      289, 447, 287, -1,
      287, 447, 449, -1,
      287, 449, 285, -1,
      285, 449, 451, -1,
      285, 451, 283, -1,
      283, 451, 453, -1,
      283, 453, 281, -1,
      281, 453, 455, -1,
      281, 455, 457, -1,
      443, 291, 441, -1,
      441, 291, 293, -1,
      441, 293, 439, -1,
      439, 293, 295, -1,
      439, 295, 437, -1,
      437, 295, 297, -1,
      437, 297, 435, -1,
      435, 297, 299, -1,
      435, 299, 433, -1,
      433, 299, 301, -1,
      433, 301, 431, -1,
      431, 301, 303, -1,
      431, 303, 429, -1,
      313, 417, 311, -1,
      311, 417, 419, -1,
      311, 419, 309, -1,
      309, 419, 421, -1,
      309, 421, 307, -1,
      307, 421, 423, -1,
      307, 423, 305, -1,
      305, 423, 425, -1,
      305, 425, 303, -1,
      303, 425, 427, -1,
      303, 427, 429, -1,
      361, 362, 359, -1,
      359, 362, 365, -1,
      359, 365, 357, -1,
      357, 365, 367, -1,
      357, 367, 355, -1,
      355, 367, 369, -1,
      355, 369, 353, -1,
      353, 369, 371, -1,
      353, 371, 351, -1,
      351, 371, 373, -1,
      351, 373, 349, -1,
      349, 373, 375, -1,
      349, 375, 347, -1,
      347, 375, 377, -1,
      347, 377, 345, -1,
      345, 377, 379, -1,
      345, 379, 343, -1,
      343, 379, 381, -1,
      343, 381, 341, -1,
      341, 381, 383, -1,
      341, 383, 339, -1,
      339, 383, 385, -1,
      339, 385, 337, -1,
      337, 385, 387, -1,
      337, 387, 335, -1,
      387, 389, 335, -1,
      335, 389, 391, -1,
      335, 391, 333, -1,
      333, 391, 393, -1,
      333, 393, 331, -1,
      331, 393, 395, -1,
      331, 395, 329, -1,
      329, 395, 397, -1,
      329, 397, 327, -1,
      327, 397, 399, -1,
      327, 399, 325, -1,
      325, 399, 401, -1,
      325, 401, 323, -1,
      323, 401, 403, -1,
      323, 403, 321, -1,
      403, 405, 321, -1,
      321, 405, 407, -1,
      321, 407, 319, -1,
      319, 407, 409, -1,
      319, 409, 317, -1,
      317, 409, 411, -1,
      317, 411, 315, -1,
      315, 411, 413, -1,
      315, 413, 313, -1,
      313, 413, 415, -1,
      313, 415, 417, -1,
      270, 271, 272, -1,
      272, 271, 274, -1,
      274, 271, 276, -1,
      276, 271, 460, -1,
      276, 460, 278, -1,
      288, 444, 290, -1,
      290, 444, 442, -1,
      290, 442, 292, -1,
      292, 442, 440, -1,
      292, 440, 294, -1,
      294, 440, 438, -1,
      294, 438, 296, -1,
      296, 438, 436, -1,
      296, 436, 298, -1,
      298, 436, 434, -1,
      298, 434, 300, -1,
      356, 364, 358, -1,
      358, 364, 363, -1,
      358, 363, 360, -1,
      302, 426, 304, -1,
      304, 426, 424, -1,
      304, 424, 306, -1,
      306, 424, 422, -1,
      306, 422, 308, -1,
      308, 422, 420, -1,
      308, 420, 310, -1,
      434, 432, 300, -1,
      300, 432, 430, -1,
      300, 430, 302, -1,
      302, 430, 428, -1,
      302, 428, 426, -1,
      460, 458, 278, -1,
      278, 458, 456, -1,
      278, 456, 280, -1,
      280, 456, 454, -1,
      280, 454, 282, -1,
      282, 454, 452, -1,
      282, 452, 284, -1,
      284, 452, 450, -1,
      284, 450, 286, -1,
      286, 450, 448, -1,
      286, 448, 288, -1,
      288, 448, 446, -1,
      288, 446, 444, -1,
      332, 390, 334, -1,
      334, 390, 388, -1,
      334, 388, 336, -1,
      336, 388, 386, -1,
      336, 386, 338, -1,
      338, 386, 384, -1,
      338, 384, 340, -1,
      340, 384, 382, -1,
      340, 382, 342, -1,
      342, 382, 380, -1,
      342, 380, 344, -1,
      344, 380, 378, -1,
      344, 378, 346, -1,
      346, 378, 376, -1,
      346, 376, 348, -1,
      348, 376, 374, -1,
      348, 374, 350, -1,
      350, 374, 372, -1,
      350, 372, 352, -1,
      352, 372, 370, -1,
      352, 370, 354, -1,
      354, 370, 368, -1,
      354, 368, 356, -1,
      356, 368, 366, -1,
      356, 366, 364, -1,
      318, 406, 320, -1,
      320, 406, 404, -1,
      320, 404, 322, -1,
      322, 404, 402, -1,
      322, 402, 324, -1,
      324, 402, 400, -1,
      324, 400, 326, -1,
      326, 400, 398, -1,
      326, 398, 328, -1,
      328, 398, 396, -1,
      328, 396, 330, -1,
      330, 396, 394, -1,
      330, 394, 332, -1,
      332, 394, 392, -1,
      332, 392, 390, -1,
      420, 418, 310, -1,
      310, 418, 416, -1,
      310, 416, 312, -1,
      312, 416, 414, -1,
      312, 414, 314, -1,
      314, 414, 412, -1,
      314, 412, 316, -1,
      316, 412, 410, -1,
      316, 410, 318, -1,
      318, 410, 408, -1,
      318, 408, 406, -1,
      462, 463, 464, -1,
      464, 463, 465, -1,
      466, 462, 467, -1,
      467, 462, 464, -1,
      468, 466, 469, -1,
      469, 466, 467, -1,
      470, 468, 471, -1,
      471, 468, 469, -1,
      472, 470, 473, -1,
      473, 470, 471, -1,
      474, 472, 475, -1,
      475, 472, 473, -1,
      476, 474, 477, -1,
      477, 474, 475, -1,
      478, 476, 479, -1,
      479, 476, 477, -1,
      480, 478, 481, -1,
      481, 478, 479, -1,
      482, 480, 483, -1,
      483, 480, 481, -1,
      484, 482, 485, -1,
      485, 482, 483, -1,
      463, 484, 465, -1,
      465, 484, 485, -1,
    ]
  }
}

Shape {
  appearance Appearance {
    material Material {
      diffuseColor 1.0000 0.5020 0.5020
      specularColor 0.5020 0.2510 0.2510
      ambientIntensity 0.2
      transparency 0.0000
      shininess 0.5
    }
  }
  geometry IndexedFaceSet {
    ccw TRUE
    solid FALSE
    coord DEF co Coordinate {
      point [
        2.475667 1.186044 -0.007874,
        2.475667 1.173081 -0.007874,
        2.475667 1.186044 0.000000,
        2.475667 1.173081 0.000000,
        2.523199 1.186044 -0.007874,
        2.523199 1.186044 0.000000,
        2.523199 1.226375 -0.007874,
        2.523199 1.226375 0.000000,
        2.481428 1.226375 -0.007874,
        2.481428 1.226375 0.000000,
        2.481428 1.239338 -0.007874,
        2.481428 1.239338 0.000000,
        2.523199 1.239338 -0.007874,
        2.523199 1.239338 0.000000,
        2.523199 1.278228 -0.007874,
        2.523199 1.278228 0.000000,
        2.478548 1.278228 -0.007874,
        2.478548 1.278228 0.000000,
        2.478548 1.291192 -0.007874,
        2.478548 1.291192 0.000000,
        2.539043 1.291192 -0.007874,
        2.539043 1.291192 0.000000,
        2.539043 1.173081 -0.007874,
        2.539043 1.173081 0.000000,
        2.375037 1.218308 -0.007874,
        2.376347 1.213781 -0.007874,
        2.362548 1.207436 -0.007874,
        2.374276 1.190466 -0.007874,
        2.385624 1.198580 -0.007874,
        2.378280 1.186896 -0.007874,
        2.388869 1.195631 -0.007874,
        2.364878 1.202720 -0.007874,
        2.378014 1.209636 -0.007874,
        2.367564 1.198429 -0.007874,
        2.380038 1.205793 -0.007874,
        2.370700 1.194319 -0.007874,
        2.382556 1.202111 -0.007874,
        2.385411 1.198798 -0.007874,
        2.374873 1.247285 -0.007874,
        2.360516 1.253408 -0.007874,
        2.376104 1.251600 -0.007874,
        2.362255 1.257979 -0.007874,
        2.377674 1.255544 -0.007874,
        2.364448 1.262387 -0.007874,
        2.379560 1.259104 -0.007874,
        2.367206 1.266713 -0.007874,
        2.381978 1.262607 -0.007874,
        2.370388 1.270746 -0.007874,
        2.384761 1.265721 -0.007874,
        2.373752 1.274255 -0.007874,
        2.387957 1.268532 -0.007874,
        2.377893 1.277846 -0.007874,
        2.391469 1.271019 -0.007874,
        2.360623 1.212586 -0.007874,
        2.359264 1.217593 -0.007874,
        2.374106 1.223128 -0.007874,
        2.358246 1.223138 -0.007874,
        2.373569 1.228386 -0.007874,
        2.357723 1.228500 -0.007874,
        2.373401 1.233284 -0.007874,
        2.357557 1.233622 -0.007874,
        2.373534 1.237554 -0.007874,
        2.357680 1.237717 -0.007874,
        2.374005 1.242574 -0.007874,
        2.358195 1.243310 -0.007874,
        2.359154 1.248486 -0.007874,
        2.420010 1.186044 -0.007874,
        2.419480 1.173100 -0.007874,
        2.415558 1.186192 -0.007874,
        2.413220 1.173369 -0.007874,
        2.410465 1.186706 -0.007874,
        2.407374 1.174100 -0.007874,
        2.405175 1.187728 -0.007874,
        2.401931 1.175197 -0.007874,
        2.400925 1.188981 -0.007874,
        2.396498 1.176796 -0.007874,
        2.396552 1.190800 -0.007874,
        2.391496 1.178754 -0.007874,
        2.392536 1.193012 -0.007874,
        2.386829 1.181063 -0.007874,
        2.382615 1.183657 -0.007874,
        2.382414 1.281085 -0.007874,
        2.386980 1.283780 -0.007874,
        2.395548 1.273291 -0.007874,
        2.392025 1.286152 -0.007874,
        2.399721 1.275061 -0.007874,
        2.396958 1.287933 -0.007874,
        2.404266 1.276471 -0.007874,
        2.402604 1.289454 -0.007874,
        2.409056 1.277455 -0.007874,
        2.408394 1.290495 -0.007874,
        2.414087 1.278033 -0.007874,
        2.413920 1.291014 -0.007874,
        2.419357 1.278228 -0.007874,
        2.419290 1.291192 -0.007874,
        2.436777 1.278228 -0.007874,
        2.452621 1.291192 -0.007874,
        2.436777 1.186044 -0.007874,
        2.452621 1.173081 -0.007874,
        2.420505 1.173081 -0.007874,
        2.395548 1.273291 0.000000,
        2.386980 1.283780 0.000000,
        2.391469 1.271019 0.000000,
        2.382414 1.281085 0.000000,
        2.387957 1.268532 0.000000,
        2.377893 1.277846 0.000000,
        2.384761 1.265721 0.000000,
        2.373752 1.274255 0.000000,
        2.381978 1.262607 0.000000,
        2.370388 1.270746 0.000000,
        2.379560 1.259104 0.000000,
        2.367206 1.266713 0.000000,
        2.377674 1.255544 0.000000,
        2.364448 1.262387 0.000000,
        2.376104 1.251600 0.000000,
        2.420010 1.186044 0.000000,
        2.420505 1.173081 0.000000,
        2.436777 1.186044 0.000000,
        2.452621 1.173081 0.000000,
        2.436777 1.278228 0.000000,
        2.452621 1.291192 0.000000,
        2.419357 1.278228 0.000000,
        2.419290 1.291192 0.000000,
        2.414087 1.278033 0.000000,
        2.413920 1.291014 0.000000,
        2.409056 1.277455 0.000000,
        2.408394 1.290495 0.000000,
        2.404266 1.276471 0.000000,
        2.402604 1.289454 0.000000,
        2.399721 1.275061 0.000000,
        2.396958 1.287933 0.000000,
        2.392025 1.286152 0.000000,
        2.374106 1.223128 0.000000,
        2.359264 1.217593 0.000000,
        2.375037 1.218308 0.000000,
        2.360623 1.212586 0.000000,
        2.376347 1.213781 0.000000,
        2.362548 1.207436 0.000000,
        2.378014 1.209636 0.000000,
        2.364878 1.202720 0.000000,
        2.380038 1.205793 0.000000,
        2.367564 1.198429 0.000000,
        2.382556 1.202111 0.000000,
        2.370700 1.194319 0.000000,
        2.385411 1.198798 0.000000,
        2.374276 1.190466 0.000000,
        2.385624 1.198580 0.000000,
        2.378280 1.186896 0.000000,
        2.388869 1.195631 0.000000,
        2.382615 1.183657 0.000000,
        2.392536 1.193012 0.000000,
        2.386829 1.181063 0.000000,
        2.396552 1.190800 0.000000,
        2.391496 1.178754 0.000000,
        2.400925 1.188981 0.000000,
        2.396498 1.176796 0.000000,
        2.405175 1.187728 0.000000,
        2.401931 1.175197 0.000000,
        2.410465 1.186706 0.000000,
        2.407374 1.174100 0.000000,
        2.415558 1.186192 0.000000,
        2.413220 1.173369 0.000000,
        2.419480 1.173100 0.000000,
        2.362255 1.257979 0.000000,
        2.360516 1.253408 0.000000,
        2.374873 1.247285 0.000000,
        2.359154 1.248486 0.000000,
        2.374005 1.242574 0.000000,
        2.358195 1.243310 0.000000,
        2.373534 1.237554 0.000000,
        2.357680 1.237717 0.000000,
        2.373401 1.233284 0.000000,
        2.357557 1.233622 0.000000,
        2.373569 1.228386 0.000000,
        2.357723 1.228500 0.000000,
        2.358246 1.223138 0.000000,
        2.316371 1.219173 -0.007874,
        2.320355 1.206210 -0.007874,
        2.276873 1.219173 -0.007874,
        2.271562 1.206210 -0.007874,
        2.298749 1.268506 -0.007874,
        2.304263 1.291192 -0.007874,
        2.348914 1.173081 -0.007874,
        2.331630 1.173081 -0.007874,
        2.297613 1.272602 -0.007874,
        2.296859 1.276788 -0.007874,
        2.288419 1.291192 -0.007874,
        2.296476 1.276788 -0.007874,
        2.295705 1.272615 -0.007874,
        2.294653 1.268506 -0.007874,
        2.242327 1.173081 -0.007874,
        2.259611 1.173081 -0.007874,
        2.242327 1.173081 0.000000,
        2.259611 1.173081 0.000000,
        2.271562 1.206210 0.000000,
        2.288419 1.291192 0.000000,
        2.296476 1.276788 0.000000,
        2.304263 1.291192 0.000000,
        2.296859 1.276788 0.000000,
        2.297613 1.272602 0.000000,
        2.298749 1.268506 0.000000,
        2.316371 1.219173 0.000000,
        2.348914 1.173081 0.000000,
        2.276873 1.219173 0.000000,
        2.294653 1.268506 0.000000,
        2.295705 1.272615 0.000000,
        2.331630 1.173081 0.000000,
        2.320355 1.206210 0.000000,
      ]
    }
    coordIndex [
      22, 1, 0, -1,
      0, 4, 22, -1,
      22, 4, 6, -1,
      22, 6, 20, -1,
      16, 18, 14, -1,
      14, 18, 20, -1,
      14, 20, 12, -1,
      12, 20, 6, -1,
      12, 6, 10, -1,
      10, 6, 8, -1,
      21, 19, 17, -1,
      17, 15, 21, -1,
      21, 15, 13, -1,
      21, 13, 23, -1,
      2, 3, 5, -1,
      5, 3, 23, -1,
      5, 23, 7, -1,
      7, 23, 13, -1,
      7, 13, 9, -1,
      9, 13, 11, -1,
      24, 25, 26, -1,
      27, 28, 29, -1,
      29, 28, 30, -1,
      26, 25, 31, -1,
      31, 25, 32, -1,
      31, 32, 33, -1,
      33, 32, 34, -1,
      33, 34, 35, -1,
      35, 34, 36, -1,
      35, 36, 27, -1,
      27, 36, 37, -1,
      27, 37, 28, -1,
      38, 39, 40, -1,
      40, 39, 41, -1,
      40, 41, 42, -1,
      42, 41, 43, -1,
      42, 43, 44, -1,
      44, 43, 45, -1,
      44, 45, 46, -1,
      46, 45, 47, -1,
      46, 47, 48, -1,
      48, 47, 49, -1,
      48, 49, 50, -1,
      50, 49, 51, -1,
      50, 51, 52, -1,
      26, 53, 24, -1,
      24, 53, 54, -1,
      24, 54, 55, -1,
      55, 54, 56, -1,
      55, 56, 57, -1,
      57, 56, 58, -1,
      57, 58, 59, -1,
      59, 58, 60, -1,
      59, 60, 61, -1,
      61, 60, 62, -1,
      61, 62, 63, -1,
      63, 62, 64, -1,
      63, 64, 38, -1,
      38, 64, 65, -1,
      38, 65, 39, -1,
      66, 67, 68, -1,
      68, 67, 69, -1,
      68, 69, 70, -1,
      70, 69, 71, -1,
      70, 71, 72, -1,
      72, 71, 73, -1,
      72, 73, 74, -1,
      74, 73, 75, -1,
      74, 75, 76, -1,
      76, 75, 77, -1,
      76, 77, 78, -1,
      78, 77, 79, -1,
      78, 79, 30, -1,
      30, 79, 80, -1,
      30, 80, 29, -1,
      51, 81, 52, -1,
      52, 81, 82, -1,
      52, 82, 83, -1,
      83, 82, 84, -1,
      83, 84, 85, -1,
      85, 84, 86, -1,
      85, 86, 87, -1,
      87, 86, 88, -1,
      87, 88, 89, -1,
      89, 88, 90, -1,
      89, 90, 91, -1,
      91, 90, 92, -1,
      91, 92, 93, -1,
      93, 92, 94, -1,
      93, 94, 95, -1,
      95, 94, 96, -1,
      95, 96, 97, -1,
      97, 96, 98, -1,
      97, 98, 66, -1,
      66, 98, 99, -1,
      66, 99, 67, -1,
      100, 101, 102, -1,
      102, 101, 103, -1,
      102, 103, 104, -1,
      104, 103, 105, -1,
      104, 105, 106, -1,
      106, 105, 107, -1,
      106, 107, 108, -1,
      108, 107, 109, -1,
      108, 109, 110, -1,
      110, 109, 111, -1,
      110, 111, 112, -1,
      112, 111, 113, -1,
      112, 113, 114, -1,
      115, 116, 117, -1,
      117, 116, 118, -1,
      117, 118, 119, -1,
      119, 118, 120, -1,
      119, 120, 121, -1,
      121, 120, 122, -1,
      121, 122, 123, -1,
      123, 122, 124, -1,
      123, 124, 125, -1,
      125, 124, 126, -1,
      125, 126, 127, -1,
      127, 126, 128, -1,
      127, 128, 129, -1,
      129, 128, 130, -1,
      129, 130, 100, -1,
      100, 130, 131, -1,
      100, 131, 101, -1,
      132, 133, 134, -1,
      134, 133, 135, -1,
      134, 135, 136, -1,
      136, 135, 137, -1,
      136, 137, 138, -1,
      138, 137, 139, -1,
      138, 139, 140, -1,
      140, 139, 141, -1,
      140, 141, 142, -1,
      142, 141, 143, -1,
      142, 143, 144, -1,
      144, 143, 145, -1,
      144, 145, 146, -1,
      146, 145, 147, -1,
      146, 147, 148, -1,
      148, 147, 149, -1,
      148, 149, 150, -1,
      150, 149, 151, -1,
      150, 151, 152, -1,
      152, 151, 153, -1,
      152, 153, 154, -1,
      154, 153, 155, -1,
      154, 155, 156, -1,
      156, 155, 157, -1,
      156, 157, 158, -1,
      158, 157, 159, -1,
      158, 159, 160, -1,
      160, 159, 161, -1,
      160, 161, 115, -1,
      115, 161, 162, -1,
      115, 162, 116, -1,
      113, 163, 114, -1,
      114, 163, 164, -1,
      114, 164, 165, -1,
      165, 164, 166, -1,
      165, 166, 167, -1,
      167, 166, 168, -1,
      167, 168, 169, -1,
      169, 168, 170, -1,
      169, 170, 171, -1,
      171, 170, 172, -1,
      171, 172, 173, -1,
      173, 172, 174, -1,
      173, 174, 132, -1,
      132, 174, 175, -1,
      132, 175, 133, -1,
      99, 98, 116, -1,
      116, 98, 118, -1,
      99, 116, 162, -1,
      99, 162, 67, -1,
      67, 162, 161, -1,
      67, 161, 69, -1,
      69, 161, 159, -1,
      69, 159, 71, -1,
      71, 159, 157, -1,
      71, 157, 73, -1,
      73, 157, 155, -1,
      73, 155, 75, -1,
      75, 155, 153, -1,
      75, 153, 77, -1,
      77, 153, 151, -1,
      77, 151, 79, -1,
      79, 151, 149, -1,
      79, 149, 80, -1,
      80, 149, 147, -1,
      80, 147, 29, -1,
      29, 147, 145, -1,
      29, 145, 27, -1,
      27, 145, 143, -1,
      27, 143, 35, -1,
      35, 143, 141, -1,
      35, 141, 33, -1,
      33, 141, 139, -1,
      33, 139, 31, -1,
      31, 139, 137, -1,
      31, 137, 26, -1,
      26, 137, 135, -1,
      26, 135, 53, -1,
      53, 135, 133, -1,
      53, 133, 54, -1,
      54, 133, 175, -1,
      54, 175, 56, -1,
      56, 175, 174, -1,
      56, 174, 58, -1,
      58, 174, 172, -1,
      58, 172, 60, -1,
      60, 172, 170, -1,
      60, 170, 62, -1,
      62, 170, 168, -1,
      62, 168, 64, -1,
      64, 168, 166, -1,
      64, 166, 65, -1,
      65, 166, 164, -1,
      65, 164, 39, -1,
      39, 164, 163, -1,
      39, 163, 41, -1,
      41, 163, 113, -1,
      41, 113, 43, -1,
      43, 113, 111, -1,
      43, 111, 45, -1,
      45, 111, 109, -1,
      45, 109, 47, -1,
      47, 109, 107, -1,
      47, 107, 49, -1,
      49, 107, 105, -1,
      49, 105, 51, -1,
      51, 105, 103, -1,
      51, 103, 81, -1,
      81, 103, 101, -1,
      81, 101, 82, -1,
      82, 101, 131, -1,
      82, 131, 84, -1,
      84, 131, 130, -1,
      84, 130, 86, -1,
      86, 130, 128, -1,
      86, 128, 88, -1,
      88, 128, 126, -1,
      88, 126, 90, -1,
      90, 126, 124, -1,
      90, 124, 92, -1,
      92, 124, 122, -1,
      92, 122, 94, -1,
      96, 94, 120, -1,
      120, 94, 122, -1,
      98, 96, 118, -1,
      118, 96, 120, -1,
      93, 95, 121, -1,
      121, 95, 119, -1,
      95, 97, 119, -1,
      119, 97, 117, -1,
      97, 66, 117, -1,
      117, 66, 115, -1,
      59, 171, 173, -1,
      59, 173, 57, -1,
      57, 173, 132, -1,
      57, 132, 55, -1,
      55, 132, 134, -1,
      55, 134, 24, -1,
      24, 134, 136, -1,
      24, 136, 25, -1,
      25, 136, 138, -1,
      25, 138, 32, -1,
      32, 138, 140, -1,
      32, 140, 34, -1,
      34, 140, 142, -1,
      34, 142, 36, -1,
      36, 142, 144, -1,
      36, 144, 37, -1,
      37, 144, 146, -1,
      37, 146, 28, -1,
      28, 146, 148, -1,
      28, 148, 30, -1,
      30, 148, 150, -1,
      30, 150, 78, -1,
      78, 150, 152, -1,
      78, 152, 76, -1,
      76, 152, 154, -1,
      76, 154, 74, -1,
      74, 154, 156, -1,
      74, 156, 72, -1,
      72, 156, 158, -1,
      72, 158, 70, -1,
      70, 158, 160, -1,
      70, 160, 68, -1,
      68, 160, 115, -1,
      68, 115, 66, -1,
      93, 121, 123, -1,
      93, 123, 91, -1,
      91, 123, 125, -1,
      91, 125, 89, -1,
      89, 125, 127, -1,
      89, 127, 87, -1,
      87, 127, 129, -1,
      87, 129, 85, -1,
      85, 129, 100, -1,
      85, 100, 83, -1,
      83, 100, 102, -1,
      83, 102, 52, -1,
      52, 102, 104, -1,
      52, 104, 50, -1,
      50, 104, 106, -1,
      50, 106, 48, -1,
      48, 106, 108, -1,
      48, 108, 46, -1,
      46, 108, 110, -1,
      46, 110, 44, -1,
      44, 110, 112, -1,
      44, 112, 42, -1,
      42, 112, 114, -1,
      42, 114, 40, -1,
      40, 114, 165, -1,
      40, 165, 38, -1,
      38, 165, 167, -1,
      38, 167, 63, -1,
      63, 167, 169, -1,
      63, 169, 61, -1,
      61, 169, 171, -1,
      61, 171, 59, -1,
      176, 177, 178, -1,
      178, 177, 179, -1,
      180, 181, 176, -1,
      176, 181, 182, -1,
      176, 182, 177, -1,
      177, 182, 183, -1,
      180, 184, 181, -1,
      181, 184, 185, -1,
      181, 185, 186, -1,
      186, 185, 187, -1,
      186, 187, 188, -1,
      188, 189, 186, -1,
      186, 189, 178, -1,
      186, 178, 190, -1,
      190, 178, 179, -1,
      190, 179, 191, -1,
      192, 193, 194, -1,
      195, 196, 197, -1,
      197, 196, 198, -1,
      197, 198, 199, -1,
      199, 200, 197, -1,
      197, 200, 201, -1,
      197, 201, 202, -1,
      203, 204, 195, -1,
      195, 204, 205, -1,
      195, 205, 196, -1,
      206, 202, 207, -1,
      207, 202, 201, -1,
      207, 201, 194, -1,
      194, 201, 203, -1,
      194, 203, 192, -1,
      192, 203, 195, -1,
      186, 190, 195, -1,
      195, 190, 192, -1,
      181, 186, 197, -1,
      197, 186, 195, -1,
      182, 181, 202, -1,
      202, 181, 197, -1,
      183, 182, 206, -1,
      206, 182, 202, -1,
      177, 183, 207, -1,
      207, 183, 206, -1,
      179, 177, 194, -1,
      194, 177, 207, -1,
      191, 179, 193, -1,
      193, 179, 194, -1,
      190, 191, 192, -1,
      192, 191, 193, -1,
      176, 178, 201, -1,
      201, 178, 203, -1,
      178, 189, 203, -1,
      203, 189, 204, -1,
    ]
  }
}

Shape {
  appearance Appearance {
    material Material {
      diffuseColor 1.0000 1.0000 1.0000
      specularColor 0.8784 0.8784 0.8784
      ambientIntensity 0.2
      transparency 0.0000
      shininess 0.5
    }
  }
  geometry IndexedFaceSet {
    ccw TRUE
    solid FALSE
    coord DEF co Coordinate {
      point [
        2.296476 1.276788 -0.007874,
        2.295705 1.272615 -0.007874,
        2.294653 1.268506 -0.007874,
        2.296476 1.276788 0.000000,
        2.294653 1.268506 0.000000,
        2.295705 1.272615 0.000000,
      ]
    }
    coordIndex [
      0, 3, 5, -1,
      0, 5, 1, -1,
      1, 5, 4, -1,
      1, 4, 2, -1,
    ]
  }
}

Shape {
  appearance Appearance {
    material Material {
      diffuseColor 1.0000 1.0000 1.0000
      specularColor 0.5020 0.5020 0.5020
      ambientIntensity 0.2
      transparency 0.0000
      shininess 0.5
    }
  }
  geometry IndexedFaceSet {
    ccw TRUE
    solid FALSE
    coord DEF co Coordinate {
      point [
        2.316371 1.219173 -0.007874,
        2.298749 1.268506 -0.007874,
        2.297613 1.272602 -0.007874,
        2.296859 1.276788 -0.007874,
        2.296476 1.276788 -0.007874,
        2.296476 1.276788 0.000000,
        2.296859 1.276788 0.000000,
        2.297613 1.272602 0.000000,
        2.298749 1.268506 0.000000,
        2.316371 1.219173 0.000000,
        2.401575 0.950787 -1.161417,
        2.401575 1.049213 -1.161417,
        2.404435 1.049213 -1.184972,
        2.404435 0.950787 -1.184972,
        2.412849 1.049213 -1.207158,
        2.412849 0.950787 -1.207158,
        2.426328 1.049213 -1.226685,
        2.426328 0.950787 -1.226685,
        2.444088 1.049213 -1.242420,
        2.444088 0.950787 -1.242420,
        2.465098 1.049213 -1.253446,
        2.465098 0.950787 -1.253446,
        2.488136 1.049213 -1.259125,
        2.488136 0.950787 -1.259125,
        2.511864 1.049213 -1.259125,
        2.511864 0.950787 -1.259125,
        2.534902 1.049213 -1.253446,
        2.534902 0.950787 -1.253446,
        2.555912 1.049213 -1.242420,
        2.555912 0.950787 -1.242420,
        2.573672 1.049213 -1.226685,
        2.573672 0.950787 -1.226685,
        2.587151 1.049213 -1.207158,
        2.587151 0.950787 -1.207158,
        2.595565 1.049213 -1.184972,
        2.595565 0.950787 -1.184972,
        2.598425 1.049213 -1.161417,
        2.598425 0.950787 -1.161417,
        2.598425 0.950787 0.000000,
        2.401575 0.950787 0.000000,
        2.401575 1.049213 0.000000,
        2.598425 1.049213 0.000000,
        2.401575 -1.049213 -1.161417,
        2.401575 -0.950787 -1.161417,
        2.404435 -0.950787 -1.184972,
        2.404435 -1.049213 -1.184972,
        2.412849 -0.950787 -1.207158,
        2.412849 -1.049213 -1.207158,
        2.426328 -0.950787 -1.226685,
        2.426328 -1.049213 -1.226685,
        2.444088 -0.950787 -1.242420,
        2.444088 -1.049213 -1.242420,
        2.465098 -0.950787 -1.253446,
        2.465098 -1.049213 -1.253446,
        2.488136 -0.950787 -1.259125,
        2.488136 -1.049213 -1.259125,
        2.511864 -0.950787 -1.259125,
        2.511864 -1.049213 -1.259125,
        2.534902 -0.950787 -1.253446,
        2.534902 -1.049213 -1.253446,
        2.555912 -0.950787 -1.242420,
        2.555912 -1.049213 -1.242420,
        2.573672 -0.950787 -1.226685,
        2.573672 -1.049213 -1.226685,
        2.587151 -0.950787 -1.207158,
        2.587151 -1.049213 -1.207158,
        2.595565 -0.950787 -1.184972,
        2.595565 -1.049213 -1.184972,
        2.598425 -0.950787 -1.161417,
        2.598425 -1.049213 -1.161417,
        2.598425 -1.049213 0.000000,
        2.401575 -1.049213 0.000000,
        2.401575 -0.950787 0.000000,
        2.598425 -0.950787 0.000000,
      ]
    }
    coordIndex [
      4, 3, 5, -1,
      5, 3, 6, -1,
      1, 8, 7, -1,
      1, 7, 2, -1,
      2, 7, 6, -1,
      2, 6, 3, -1,
      1, 0, 8, -1,
      8, 0, 9, -1,
      10, 11, 12, -1,
      10, 12, 13, -1,
      13, 12, 14, -1,
      13, 14, 15, -1,
      15, 14, 16, -1,
      15, 16, 17, -1,
      17, 16, 18, -1,
      17, 18, 19, -1,
      19, 18, 20, -1,
      19, 20, 21, -1,
      21, 20, 22, -1,
      21, 22, 23, -1,
      23, 22, 24, -1,
      23, 24, 25, -1,
      25, 24, 26, -1,
      25, 26, 27, -1,
      27, 26, 28, -1,
      27, 28, 29, -1,
      29, 28, 30, -1,
      29, 30, 31, -1,
      31, 30, 32, -1,
      31, 32, 33, -1,
      33, 32, 34, -1,
      33, 34, 35, -1,
      35, 34, 36, -1,
      35, 36, 37, -1,
      37, 38, 39, -1,
      39, 10, 37, -1,
      37, 10, 13, -1,
      37, 13, 15, -1,
      15, 17, 37, -1,
      37, 17, 19, -1,
      37, 19, 35, -1,
      35, 19, 33, -1,
      21, 23, 29, -1,
      29, 23, 25, -1,
      29, 25, 27, -1,
      21, 29, 19, -1,
      19, 29, 31, -1,
      19, 31, 33, -1,
      10, 39, 11, -1,
      11, 39, 40, -1,
      40, 41, 11, -1,
      11, 41, 36, -1,
      11, 36, 12, -1,
      12, 36, 34, -1,
      12, 34, 32, -1,
      16, 28, 18, -1,
      18, 28, 26, -1,
      26, 24, 18, -1,
      18, 24, 22, -1,
      18, 22, 20, -1,
      32, 30, 12, -1,
      12, 30, 28, -1,
      12, 28, 14, -1,
      14, 28, 16, -1,
      36, 41, 37, -1,
      37, 41, 38, -1,
      41, 40, 38, -1,
      38, 40, 39, -1,
      42, 43, 44, -1,
      42, 44, 45, -1,
      45, 44, 46, -1,
      45, 46, 47, -1,
      47, 46, 48, -1,
      47, 48, 49, -1,
      49, 48, 50, -1,
      49, 50, 51, -1,
      51, 50, 52, -1,
      51, 52, 53, -1,
      53, 52, 54, -1,
      53, 54, 55, -1,
      55, 54, 56, -1,
      55, 56, 57, -1,
      57, 56, 58, -1,
      57, 58, 59, -1,
      59, 58, 60, -1,
      59, 60, 61, -1,
      61, 60, 62, -1,
      61, 62, 63, -1,
      63, 62, 64, -1,
      63, 64, 65, -1,
      65, 64, 66, -1,
      65, 66, 67, -1,
      67, 66, 68, -1,
      67, 68, 69, -1,
      69, 70, 71, -1,
      71, 42, 69, -1,
      69, 42, 45, -1,
      69, 45, 47, -1,
      47, 49, 69, -1,
      69, 49, 51, -1,
      69, 51, 67, -1,
      67, 51, 65, -1,
      53, 55, 61, -1,
      61, 55, 57, -1,
      61, 57, 59, -1,
      53, 61, 51, -1,
      51, 61, 63, -1,
      51, 63, 65, -1,
      42, 71, 43, -1,
      43, 71, 72, -1,
      72, 73, 43, -1,
      43, 73, 68, -1,
      43, 68, 44, -1,
      44, 68, 66, -1,
      44, 66, 64, -1,
      48, 60, 50, -1,
      50, 60, 58, -1,
      58, 56, 50, -1,
      50, 56, 54, -1,
      50, 54, 52, -1,
      64, 62, 44, -1,
      44, 62, 60, -1,
      44, 60, 46, -1,
      46, 60, 48, -1,
      68, 73, 69, -1,
      69, 73, 70, -1,
      73, 72, 70, -1,
      70, 72, 71, -1,
    ]
  }
}
